<?xml version="1.0" encoding="UTF-8"?>
<svg xmlns="http://www.w3.org/2000/svg" xmlns:xlink="http://www.w3.org/1999/xlink" width="487.5pt" height="487.499999pt" viewBox="0 0 487.5 487.499999" version="1.2">
<defs>
<clipPath id="clip1">
  <path d="M 258 406 L 307 406 L 307 471.703125 L 258 471.703125 Z M 258 406 "/>
</clipPath>
<clipPath id="clip2">
  <path d="M 258 444 L 307 444 L 307 471.703125 L 258 471.703125 Z M 258 444 "/>
</clipPath>
<filter id="alpha" filterUnits="objectBoundingBox" x="0%" y="0%" width="100%" height="100%">
  <feColorMatrix type="matrix" in="SourceGraphic" values="0 0 0 0 1 0 0 0 0 1 0 0 0 0 1 0 0 0 1 0"/>
</filter>
<mask id="mask0">
  <g filter="url(#alpha)">
<rect x="0" y="0" width="487.5" height="487.499999" style="fill:rgb(0%,0%,0%);fill-opacity:0.6078;stroke:none;"/>
  </g>
</mask>
<clipPath id="clip3">
  <rect x="0" y="0" width="40" height="61"/>
</clipPath>
<g id="surface5" clip-path="url(#clip3)">
<path style=" stroke:none;fill-rule:nonzero;fill:rgb(98.039246%,98.039246%,100%);fill-opacity:0.6784;" d="M 36.835938 48.835938 C 36.949219 49.980469 36.597656 51.15625 35.558594 52.296875 C 34.214844 53.773438 32.191406 54.636719 30.164062 55.257812 C 28.136719 55.878906 26.027344 56.308594 24.101562 57.152344 C 23.839844 57.265625 23.570312 57.398438 23.40625 57.613281 C 22.972656 58.191406 23.511719 58.9375 24.023438 59.457031 C 22.96875 59.597656 21.828125 59.351562 21.035156 58.71875 C 20.246094 58.082031 19.859375 57.039062 20.179688 56.140625 C 20.734375 54.589844 22.863281 54.0625 24.238281 52.988281 C 27.019531 50.8125 25.871094 46.949219 22.957031 45.558594 C 19.058594 43.691406 13.664062 43.183594 9.484375 41.628906 C 6.886719 40.664062 4.183594 39.460938 2.808594 37.28125 C 1.324219 34.925781 1.800781 31.890625 3.320312 29.550781 C 4.84375 27.207031 7.265625 25.441406 9.734375 23.855469 C 12.828125 21.871094 16.523438 19.15625 15.578125 15.882812 C 14.992188 13.847656 12.785156 12.585938 10.902344 11.3125 C 9.019531 10.035156 7.152344 8.136719 7.683594 6.09375 C 8.101562 4.488281 9.859375 3.460938 11.566406 2.808594 C 19.070312 -0.0703125 28.433594 1.375 34.398438 6.328125 C 36.175781 7.804688 37.679688 9.59375 38.410156 11.652344 C 40.375 17.203125 36.296875 23.050781 31.417969 26.945312 C 29.390625 28.5625 27.15625 30.050781 25.6875 32.085938 C 21.644531 37.695312 26.929688 39.832031 31.433594 42.4375 C 33.996094 43.914062 36.578125 46.292969 36.835938 48.835938 Z M 36.835938 48.835938 "/>
</g>
</defs>
<g id="surface1">
<path style=" stroke:none;fill-rule:nonzero;fill:rgb(96.859741%,75.689697%,3.138733%);fill-opacity:1;" d="M 82.449219 306.054688 L 107.847656 306.054688 L 153.78125 457.066406 L 164.390625 457.066406 L 122.566406 288.597656 L 67.289062 288.597656 L 30.917969 457.066406 L 42.292969 457.066406 Z M 82.449219 306.054688 "/>
<path style=" stroke:none;fill-rule:nonzero;fill:rgb(95.289612%,75.689697%,43.139648%);fill-opacity:1;" d="M 16.277344 142.777344 L 24.574219 142.859375 C 26.234375 142.875 27.585938 141.34375 27.585938 139.445312 L 27.585938 97.894531 C 27.585938 96.019531 26.265625 94.496094 24.628906 94.480469 L 16.328125 94.398438 C 14.671875 94.382812 13.316406 95.914062 13.316406 97.8125 L 13.316406 139.363281 C 13.320312 141.238281 14.640625 142.761719 16.277344 142.777344 Z M 16.277344 142.777344 "/>
<path style=" stroke:none;fill-rule:nonzero;fill:rgb(94.509888%,43.528748%,40.388489%);fill-opacity:1;" d="M 29.804688 142.792969 L 35.609375 142.859375 C 36.769531 142.875 37.714844 141.601562 37.714844 140.027344 L 37.714844 105.539062 C 37.714844 103.984375 36.792969 102.71875 35.648438 102.707031 L 29.839844 102.640625 C 28.679688 102.625 27.734375 103.898438 27.734375 105.472656 L 27.734375 139.957031 C 27.734375 141.515625 28.660156 142.78125 29.804688 142.792969 Z M 29.804688 142.792969 "/>
<path style=" stroke:none;fill-rule:nonzero;fill:rgb(57.249451%,64.709473%,97.24884%);fill-opacity:1;" d="M 53.828125 142.753906 L 59.246094 140.667969 C 60.328125 140.25 60.730469 138.71875 60.144531 137.253906 L 47.332031 105.230469 C 46.753906 103.785156 45.425781 102.953125 44.359375 103.367188 L 38.941406 105.457031 C 37.859375 105.875 37.457031 107.40625 38.039062 108.867188 L 50.855469 140.890625 C 51.433594 142.335938 52.757812 143.167969 53.828125 142.753906 Z M 53.828125 142.753906 "/>
<path style=" stroke:none;fill-rule:nonzero;fill:rgb(89.019775%,90.979004%,98.81897%);fill-opacity:1;" d="M 109.082031 150.792969 L 0.949219 150.792969 C 0.515625 150.792969 0.164062 150.441406 0.164062 150.007812 L 0.164062 143.386719 C 0.164062 142.953125 0.515625 142.601562 0.949219 142.601562 L 109.082031 142.601562 C 109.515625 142.601562 109.867188 142.953125 109.867188 143.386719 L 109.867188 150.007812 C 109.867188 150.441406 109.515625 150.792969 109.082031 150.792969 Z M 109.082031 150.792969 "/>
<path style=" stroke:none;fill-rule:nonzero;fill:rgb(19.219971%,65.489197%,52.938843%);fill-opacity:1;" d="M 88.015625 213.355469 L 94.203125 213.054688 L 96.003906 249.777344 L 89.820312 250.078125 Z M 88.015625 213.355469 "/>
<path style=" stroke:none;fill-rule:nonzero;fill:rgb(92.549133%,53.329468%,44.709778%);fill-opacity:1;" d="M 94.203125 213.058594 L 88.015625 213.359375 L 89.839844 206.542969 L 90.636719 203.5625 L 91.722656 206.449219 Z M 94.203125 213.058594 "/>
<path style=" stroke:none;fill-rule:nonzero;fill:rgb(19.219971%,65.489197%,52.938843%);fill-opacity:1;" d="M 91.722656 206.449219 L 89.839844 206.542969 L 90.636719 203.5625 Z M 91.722656 206.449219 "/>
<path style=" stroke:none;fill-rule:nonzero;fill:rgb(38.819885%,38.038635%,70.979309%);fill-opacity:1;" d="M 90.460938 262.195312 L 91.996094 225.457031 L 98.183594 225.71875 L 96.648438 262.453125 Z M 90.460938 262.195312 "/>
<path style=" stroke:none;fill-rule:nonzero;fill:rgb(92.549133%,53.329468%,44.709778%);fill-opacity:1;" d="M 98.183594 225.703125 L 91.996094 225.445312 L 94.429688 218.820312 L 95.492188 215.921875 L 96.3125 218.898438 Z M 98.183594 225.703125 "/>
<path style=" stroke:none;fill-rule:nonzero;fill:rgb(38.819885%,38.038635%,70.979309%);fill-opacity:1;" d="M 96.3125 218.898438 L 94.429688 218.820312 L 95.492188 215.921875 Z M 96.3125 218.898438 "/>
<path style=" stroke:none;fill-rule:nonzero;fill:rgb(57.249451%,64.709473%,97.24884%);fill-opacity:1;" d="M 76.289062 225.03125 L 82.25 223.347656 L 92.261719 258.726562 L 86.304688 260.410156 Z M 76.289062 225.03125 "/>
<path style=" stroke:none;fill-rule:nonzero;fill:rgb(92.549133%,53.329468%,44.709778%);fill-opacity:1;" d="M 82.253906 223.34375 L 76.292969 225.027344 L 76.539062 217.972656 L 76.644531 214.886719 L 78.351562 217.460938 Z M 82.253906 223.34375 "/>
<path style=" stroke:none;fill-rule:nonzero;fill:rgb(57.249451%,64.709473%,97.24884%);fill-opacity:1;" d="M 78.351562 217.460938 L 76.539062 217.972656 L 76.644531 214.886719 Z M 78.351562 217.460938 "/>
<path style=" stroke:none;fill-rule:nonzero;fill:rgb(9.01947%,12.159729%,23.919678%);fill-opacity:1;" d="M 314.4375 460.957031 C 314.4375 461.394531 314.394531 461.828125 314.308594 462.257812 C 314.222656 462.6875 314.097656 463.101562 313.929688 463.503906 C 313.761719 463.910156 313.554688 464.292969 313.3125 464.65625 C 313.070312 465.019531 312.792969 465.355469 312.484375 465.664062 C 312.175781 465.972656 311.839844 466.25 311.472656 466.492188 C 311.109375 466.734375 310.726562 466.941406 310.320312 467.109375 C 309.917969 467.273438 309.5 467.402344 309.070312 467.488281 C 308.640625 467.570312 308.210938 467.613281 307.773438 467.613281 C 307.332031 467.613281 306.902344 467.570312 306.472656 467.488281 C 306.042969 467.402344 305.625 467.273438 305.222656 467.109375 C 304.816406 466.941406 304.433594 466.734375 304.070312 466.492188 C 303.703125 466.25 303.367188 465.972656 303.058594 465.664062 C 302.75 465.355469 302.472656 465.019531 302.230469 464.65625 C 301.988281 464.292969 301.78125 463.910156 301.613281 463.503906 C 301.445312 463.101562 301.320312 462.6875 301.234375 462.257812 C 301.148438 461.828125 301.105469 461.394531 301.105469 460.957031 C 301.105469 460.519531 301.148438 460.089844 301.234375 459.660156 C 301.320312 459.230469 301.445312 458.816406 301.613281 458.410156 C 301.78125 458.007812 301.988281 457.625 302.230469 457.261719 C 302.472656 456.898438 302.75 456.5625 303.058594 456.25 C 303.367188 455.941406 303.703125 455.667969 304.070312 455.425781 C 304.433594 455.179688 304.816406 454.976562 305.222656 454.808594 C 305.625 454.640625 306.042969 454.515625 306.472656 454.429688 C 306.902344 454.34375 307.332031 454.300781 307.773438 454.300781 C 308.210938 454.300781 308.640625 454.34375 309.070312 454.429688 C 309.5 454.515625 309.917969 454.640625 310.320312 454.808594 C 310.726562 454.976562 311.109375 455.179688 311.472656 455.425781 C 311.839844 455.667969 312.175781 455.941406 312.484375 456.25 C 312.792969 456.5625 313.070312 456.898438 313.3125 457.261719 C 313.554688 457.625 313.761719 458.007812 313.929688 458.410156 C 314.097656 458.816406 314.222656 459.230469 314.308594 459.660156 C 314.394531 460.089844 314.4375 460.519531 314.4375 460.957031 Z M 314.4375 460.957031 "/>
<path style=" stroke:none;fill-rule:nonzero;fill:rgb(9.01947%,12.159729%,23.919678%);fill-opacity:1;" d="M 276.113281 460.957031 C 276.113281 461.394531 276.070312 461.828125 275.984375 462.257812 C 275.898438 462.6875 275.773438 463.101562 275.605469 463.503906 C 275.4375 463.910156 275.234375 464.292969 274.988281 464.65625 C 274.746094 465.019531 274.46875 465.355469 274.160156 465.664062 C 273.851562 465.972656 273.515625 466.25 273.152344 466.492188 C 272.789062 466.734375 272.402344 466.941406 272 467.109375 C 271.59375 467.273438 271.179688 467.402344 270.75 467.488281 C 270.320312 467.570312 269.886719 467.613281 269.449219 467.613281 C 269.011719 467.613281 268.578125 467.570312 268.148438 467.488281 C 267.71875 467.402344 267.300781 467.273438 266.898438 467.109375 C 266.492188 466.941406 266.109375 466.734375 265.746094 466.492188 C 265.382812 466.25 265.046875 465.972656 264.734375 465.664062 C 264.425781 465.355469 264.152344 465.019531 263.90625 464.65625 C 263.664062 464.292969 263.457031 463.910156 263.292969 463.503906 C 263.125 463.101562 262.996094 462.6875 262.914062 462.257812 C 262.828125 461.828125 262.785156 461.394531 262.785156 460.957031 C 262.785156 460.519531 262.828125 460.089844 262.914062 459.660156 C 262.996094 459.230469 263.125 458.816406 263.292969 458.410156 C 263.457031 458.007812 263.664062 457.625 263.90625 457.261719 C 264.152344 456.898438 264.425781 456.5625 264.734375 456.25 C 265.046875 455.941406 265.382812 455.667969 265.746094 455.425781 C 266.109375 455.179688 266.492188 454.976562 266.898438 454.808594 C 267.300781 454.640625 267.71875 454.515625 268.148438 454.429688 C 268.578125 454.34375 269.011719 454.300781 269.449219 454.300781 C 269.886719 454.300781 270.320312 454.34375 270.75 454.429688 C 271.179688 454.515625 271.59375 454.640625 272 454.808594 C 272.402344 454.976562 272.789062 455.179688 273.152344 455.425781 C 273.515625 455.667969 273.851562 455.941406 274.160156 456.25 C 274.46875 456.5625 274.746094 456.898438 274.988281 457.261719 C 275.234375 457.625 275.4375 458.007812 275.605469 458.410156 C 275.773438 458.816406 275.898438 459.230469 275.984375 459.660156 C 276.070312 460.089844 276.113281 460.519531 276.113281 460.957031 Z M 276.113281 460.957031 "/>
<path style=" stroke:none;fill-rule:nonzero;fill:rgb(9.01947%,12.159729%,23.919678%);fill-opacity:1;" d="M 291.109375 436.738281 L 291.109375 329.933594 L 286.109375 329.933594 L 286.109375 436.738281 L 266.71875 459.335938 L 270.511719 462.582031 L 288.609375 441.496094 L 306.707031 462.582031 L 310.5 459.335938 Z M 291.109375 436.738281 "/>
<path style=" stroke:none;fill-rule:nonzero;fill:rgb(8.239746%,12.548828%,23.919678%);fill-opacity:1;" d="M 392.078125 203.414062 C 390.40625 201.878906 388.585938 200.507812 386.609375 199.472656 C 386.449219 199.464844 386.285156 199.457031 386.121094 199.449219 C 387.0625 200.203125 388.035156 200.902344 388.984375 201.539062 C 389.929688 202.171875 390.976562 202.828125 392.078125 203.414062 Z M 392.078125 203.414062 "/>
<path style=" stroke:none;fill-rule:nonzero;fill:rgb(9.01947%,12.159729%,23.919678%);fill-opacity:1;" d="M 388.472656 202.742188 C 386.976562 201.753906 385.441406 200.628906 384.03125 199.363281 C 381.035156 199.261719 377.769531 199.226562 376.964844 199.226562 L 300.714844 199.226562 C 292.800781 199.226562 284.53125 205.230469 284.53125 213.136719 L 284.53125 335.90625 L 216.566406 335.90625 C 206.214844 335.90625 197.335938 343.992188 197.144531 354.332031 C 196.949219 364.863281 205.445312 373.449219 215.949219 373.449219 L 353.25 373.449219 C 366.101562 373.449219 376.980469 362.925781 376.980469 350.089844 L 391.746094 213.136719 C 391.746094 210.117188 392.5 207.382812 392.695312 205.140625 C 391.183594 204.445312 389.753906 203.585938 388.472656 202.742188 Z M 388.472656 202.742188 "/>
<path style=" stroke:none;fill-rule:nonzero;fill:rgb(94.509888%,43.528748%,40.388489%);fill-opacity:1;" d="M 307.167969 354.476562 C 306.976562 365.089844 315.46875 373.738281 325.972656 373.738281 L 360.816406 373.738281 C 380.023438 373.738281 395.738281 357.921875 395.738281 338.585938 L 395.738281 210.324219 C 395.738281 209.917969 395.722656 209.515625 395.6875 209.121094 C 394.644531 196.832031 376.773438 195.617188 373.738281 207.566406 C 373.511719 208.457031 373.390625 209.378906 373.390625 210.324219 L 373.390625 324.449219 C 373.390625 330.777344 368.292969 335.90625 362.007812 335.90625 L 326.59375 335.90625 C 316.242188 335.90625 307.363281 344.054688 307.167969 354.476562 Z M 307.167969 354.476562 "/>
<path style=" stroke:none;fill-rule:nonzero;fill:rgb(20.779419%,19.60907%,29.798889%);fill-opacity:1;" d="M 332.371094 256.257812 C 325.492188 256.394531 318.609375 256.550781 311.730469 256.65625 C 296.363281 256.886719 281.023438 256.554688 265.679688 255.839844 C 261.15625 266.847656 230.683594 275.640625 227.84375 288.367188 C 229.730469 287.941406 257.949219 291.355469 259.917969 291.355469 C 260.160156 291.355469 260.402344 291.359375 260.644531 291.363281 C 268.164062 291.472656 274.828125 287.25 277.925781 280.714844 C 279.78125 276.796875 282.386719 273.433594 286.339844 271.238281 C 290.238281 269.074219 294.847656 268.484375 299.320312 267.9375 L 328.65625 264.347656 C 330.074219 264.171875 331.46875 263.660156 332.46875 262.6875 C 334.453125 260.761719 333.945312 258.386719 332.371094 256.257812 Z M 332.371094 256.257812 "/>
<path style=" stroke:none;fill-rule:nonzero;fill:rgb(57.249451%,64.709473%,97.24884%);fill-opacity:1;" d="M 276.375 186.65625 C 271.980469 188.425781 268 190.945312 264.394531 193.988281 C 259.660156 198.90625 255.722656 204.515625 252.945312 209.273438 C 252.003906 210.890625 251.121094 212.558594 250.671875 214.351562 C 250.085938 216.710938 250.28125 219.175781 250.398438 221.597656 C 251.480469 244.285156 246.402344 262.011719 234.214844 281.453125 C 233.507812 282.585938 232.925781 284.25 233.722656 285.140625 C 234.429688 284.871094 235.136719 284.597656 235.835938 284.3125 C 242.425781 281.632812 248.835938 278.246094 254.15625 273.472656 C 259.539062 268.648438 263.328125 262.5 265.183594 255.535156 C 266.757812 245.152344 268.363281 234.765625 270.808594 224.550781 C 272.699219 216.652344 274.414062 208.652344 277.5625 201.09375 C 279.160156 197.25 281.128906 193.539062 283.597656 190.125 C 285.460938 187.554688 288.082031 185.582031 289.679688 182.976562 C 285.160156 183.878906 280.652344 184.933594 276.375 186.65625 Z M 276.375 186.65625 "/>
<g clip-path="url(#clip1)" clip-rule="nonzero">
<path style=" stroke:none;fill-rule:nonzero;fill:rgb(52.938843%,41.178894%,72.158813%);fill-opacity:1;" d="M 259.320312 468.292969 L 261.003906 471.652344 L 306.578125 448.859375 L 304.265625 444.183594 L 285.71875 406.78125 L 267.585938 415.847656 L 279.277344 439.171875 L 261.03125 457.574219 C 258.566406 460.0625 257.734375 463.671875 258.769531 466.933594 C 258.914062 467.398438 259.097656 467.847656 259.320312 468.292969 Z M 259.320312 468.292969 "/>
</g>
<path style=" stroke:none;fill-rule:nonzero;fill:rgb(96.859741%,75.689697%,3.138733%);fill-opacity:1;" d="M 268.660156 415.3125 L 279.179688 436.304688 L 297.222656 427.285156 L 286.792969 406.242188 Z M 268.660156 415.3125 "/>
<g clip-path="url(#clip2)" clip-rule="nonzero">
<path style=" stroke:none;fill-rule:nonzero;fill:rgb(8.239746%,0%,46.669006%);fill-opacity:1;" d="M 259.320312 468.292969 L 261.003906 471.652344 L 306.578125 448.859375 L 304.265625 444.183594 L 258.769531 466.933594 C 258.914062 467.398438 259.097656 467.847656 259.320312 468.292969 Z M 259.320312 468.292969 "/>
</g>
<path style=" stroke:none;fill-rule:nonzero;fill:rgb(52.938843%,41.178894%,72.158813%);fill-opacity:1;" d="M 140.632812 460.269531 L 140.632812 464.023438 L 191.601562 464.023438 L 191.628906 458.808594 L 191.8125 417.070312 L 171.53125 417.070312 L 171.53125 443.15625 L 146.96875 451.453125 C 143.652344 452.574219 141.285156 455.429688 140.75 458.808594 C 140.671875 459.289062 140.632812 459.769531 140.632812 460.269531 Z M 140.632812 460.269531 "/>
<path style=" stroke:none;fill-rule:nonzero;fill:rgb(96.859741%,75.689697%,3.138733%);fill-opacity:1;" d="M 172.730469 417.070312 L 172.730469 440.546875 L 192.910156 440.546875 L 193.011719 417.070312 Z M 172.730469 417.070312 "/>
<path style=" stroke:none;fill-rule:nonzero;fill:rgb(8.239746%,0%,46.669006%);fill-opacity:1;" d="M 140.632812 460.269531 L 140.632812 464.023438 L 191.601562 464.023438 L 191.628906 458.808594 L 140.75 458.808594 C 140.671875 459.289062 140.632812 459.769531 140.632812 460.269531 Z M 140.632812 460.269531 "/>
<path style=" stroke:none;fill-rule:nonzero;fill:rgb(57.249451%,64.709473%,97.24884%);fill-opacity:1;" d="M 301.058594 286.933594 C 298.128906 286.933594 240.910156 287.335938 205.828125 287.585938 C 190.027344 287.699219 176.378906 298.640625 172.84375 314.019531 L 158.507812 436.933594 L 194.148438 441.171875 L 219.601562 335.238281 L 319.441406 336.613281 C 333.066406 336.800781 345.0625 327.683594 348.523438 314.519531 L 356.214844 285.234375 L 297.667969 287.777344 Z M 301.058594 286.933594 "/>
<path style=" stroke:none;fill-rule:nonzero;fill:rgb(57.249451%,64.709473%,97.24884%);fill-opacity:1;" d="M 352.363281 291.167969 C 350.824219 291.167969 287.226562 291.5 242.535156 291.734375 C 221.109375 291.847656 205.914062 312.640625 212.34375 333.054688 L 260.332031 441.171875 L 296.886719 426.523438 L 264.390625 338.660156 L 315.550781 339.1875 C 330.9375 339.347656 347.660156 328.53125 352.820312 314.050781 L 354.941406 290.320312 Z M 352.363281 291.167969 "/>
<path style=" stroke:none;fill-rule:nonzero;fill:rgb(92.549133%,53.329468%,44.709778%);fill-opacity:1;" d="M 303.042969 311.332031 C 302.910156 311.402344 302.78125 311.472656 302.640625 311.539062 C 302.832031 311.417969 303.027344 311.300781 303.222656 311.183594 C 303.167969 311.230469 303.105469 311.277344 303.042969 311.332031 Z M 303.042969 311.332031 "/>
<path style=" stroke:none;fill-rule:nonzero;fill:rgb(94.509888%,43.528748%,40.388489%);fill-opacity:1;" d="M 266.976562 274.535156 C 259.957031 282.085938 250.179688 286.753906 240.488281 289.851562 C 239.109375 290.292969 237.710938 290.703125 236.304688 291.09375 L 349.414062 292.703125 L 340.980469 253.007812 L 276.5625 261.433594 C 275.242188 265.726562 270.050781 271.226562 266.976562 274.535156 Z M 266.976562 274.535156 "/>
<path style=" stroke:none;fill-rule:nonzero;fill:rgb(96.859741%,75.689697%,3.138733%);fill-opacity:1;" d="M 444.925781 167.363281 C 444.605469 170.210938 441.410156 178.195312 440.445312 180.796875 C 443.378906 184.394531 449.503906 181.035156 453.386719 183.425781 C 453.921875 183.757812 454.464844 184.085938 455.011719 184.410156 C 457.277344 178.210938 459.582031 172.023438 461.996094 165.882812 C 464.320312 159.972656 465.992188 154.121094 465.851562 153.28125 C 465.507812 151.277344 465.761719 151.910156 465.507812 151.277344 C 465.429688 151.085938 465.335938 150.902344 465.230469 150.726562 C 465.113281 150.535156 464.824219 150.566406 464.746094 150.773438 C 464.535156 151.308594 464.324219 151.847656 464.121094 152.375 C 462.886719 155.546875 461.722656 158.542969 460.46875 161.03125 C 460.414062 161.136719 460.324219 161.214844 460.21875 161.25 C 460.109375 161.289062 459.988281 161.285156 459.875 161.226562 C 459.65625 161.117188 459.566406 160.851562 459.679688 160.632812 C 460.910156 158.183594 462.070312 155.207031 463.292969 152.054688 C 463.527344 151.457031 463.761719 150.851562 464 150.246094 C 464.164062 149.832031 464.046875 149.359375 463.703125 149.082031 C 463.691406 149.074219 463.679688 149.0625 463.667969 149.054688 C 463.667969 149.050781 463.664062 149.050781 463.660156 149.046875 C 463.125 148.617188 462.324219 148.832031 462.070312 149.472656 C 461.867188 149.984375 461.660156 150.507812 461.449219 151.042969 C 460.152344 154.335938 458.808594 157.742188 457.394531 159.835938 C 457.339844 159.917969 457.261719 159.972656 457.171875 160.003906 C 457.046875 160.046875 456.898438 160.035156 456.777344 159.953125 C 456.574219 159.816406 456.523438 159.539062 456.660156 159.335938 C 458.019531 157.328125 459.34375 153.96875 460.625 150.71875 C 460.910156 149.992188 461.191406 149.285156 461.464844 148.597656 C 461.664062 148.101562 461.445312 147.539062 460.96875 147.300781 L 460.949219 147.289062 C 460.414062 147.023438 459.773438 147.277344 459.550781 147.828125 C 458.042969 151.601562 456.421875 155.359375 454.71875 159.03125 C 454.664062 159.144531 454.570312 159.226562 454.460938 159.261719 C 454.355469 159.300781 454.238281 159.296875 454.128906 159.246094 C 453.90625 159.144531 453.808594 158.878906 453.910156 158.660156 C 455.65625 154.902344 457.308594 151.054688 458.847656 147.195312 C 458.964844 146.898438 458.738281 146.574219 458.414062 146.582031 C 458.09375 146.585938 457.789062 146.648438 457.511719 146.777344 C 455.921875 147.511719 454.78125 150.785156 454.050781 152.238281 C 452.65625 155.011719 450.320312 158.886719 447.734375 163.132812 C 448.050781 162.863281 445.085938 155.664062 444.152344 156.105469 C 443.824219 156.257812 443.660156 156.640625 443.65625 157 C 443.652344 157.359375 443.78125 157.707031 443.898438 158.046875 C 444.921875 161.023438 445.273438 164.234375 444.925781 167.363281 Z M 444.925781 167.363281 "/>
<path style=" stroke:none;fill-rule:nonzero;fill:rgb(54.508972%,39.99939%,72.158813%);fill-opacity:1;" d="M 332.75 219.746094 C 323.527344 216.179688 314.332031 211.738281 306.417969 205.746094 C 301.164062 201.765625 295.414062 196.371094 294.03125 189.628906 C 292.664062 182.949219 296.910156 177.121094 301.609375 172.789062 C 305.253906 169.425781 309.386719 166.582031 313.773438 164.101562 C 319.890625 163.9375 325.996094 163.53125 332.070312 162.6875 C 358.464844 159.011719 377.871094 179.324219 396.070312 195.519531 C 402.425781 201.175781 411.644531 210.613281 418.472656 205.507812 C 426.476562 199.523438 438.347656 178.851562 441.160156 173.804688 C 441.238281 173.644531 441.324219 173.492188 441.40625 173.335938 C 450.875 175.039062 455.316406 178.617188 456.148438 182.460938 C 453.402344 190.183594 448.0625 203.285156 444.121094 210.480469 C 440.796875 216.550781 437.058594 222.402344 432.941406 227.972656 C 420.242188 245.148438 403.085938 240.207031 386.929688 229.949219 C 381.082031 226.234375 376.417969 220.761719 370.472656 217.164062 C 365.582031 214.207031 364.058594 213.972656 363.109375 220.121094 C 362.6875 222.871094 362.507812 225.703125 362.449219 228.535156 C 352.347656 226.347656 342.390625 223.476562 332.75 219.746094 Z M 332.75 219.746094 "/>
<path style=" stroke:none;fill-rule:nonzero;fill:rgb(96.859741%,75.689697%,3.138733%);fill-opacity:1;" d="M 317.347656 150.070312 L 317.347656 170.808594 C 317.347656 176 312.832031 180.242188 307.636719 180.242188 C 302.441406 180.242188 297.925781 176 297.925781 170.808594 L 297.925781 150.070312 C 297.925781 144.878906 302.308594 140.636719 307.503906 140.636719 C 310.101562 140.636719 312.664062 141.695312 314.371094 143.410156 C 316.085938 145.113281 317.347656 147.472656 317.347656 150.070312 Z M 317.347656 150.070312 "/>
<path style=" stroke:none;fill-rule:nonzero;fill:rgb(8.239746%,0%,46.669006%);fill-opacity:1;" d="M 307.222656 156.476562 L 297.925781 161.949219 L 297.925781 153.261719 C 300.351562 154.84375 302.570312 156.164062 307.222656 156.476562 Z M 307.222656 156.476562 "/>
<path style=" stroke:none;fill-rule:nonzero;fill:rgb(8.239746%,0%,46.669006%);fill-opacity:1;" d="M 295.40625 123.878906 C 295.933594 122.058594 296.769531 120.65625 297.949219 120.242188 C 299.09375 119.84375 300.34375 119.910156 301.554688 119.984375 C 306.128906 120.265625 312.289062 119.617188 316.597656 121.4375 C 319.660156 122.730469 320.917969 125.40625 321.46875 129.058594 C 322.128906 133.40625 322.328125 137.84375 322.070312 142.246094 C 321.933594 144.609375 321.523438 147.242188 319.828125 148.625 C 317.707031 150.351562 314.59375 149.167969 312.800781 147.019531 C 312.101562 146.183594 311.523438 145.214844 311.136719 144.148438 C 310.695312 142.933594 310.507812 141.617188 310.113281 140.378906 C 309.363281 138.042969 307.714844 135.949219 305.566406 135.421875 C 302.804688 134.742188 298.101562 138.511719 296.164062 136.078125 C 294.597656 134.109375 294.230469 127.945312 295.40625 123.878906 Z M 295.40625 123.878906 "/>
<path style=" stroke:none;fill-rule:nonzero;fill:rgb(96.859741%,75.689697%,3.138733%);fill-opacity:1;" d="M 305.101562 156.222656 L 312.492188 153.839844 C 319.507812 147.371094 312.945312 147.449219 317.886719 147.371094 L 317.347656 135.820312 C 317.347656 129.199219 311.707031 123.664062 305.078125 123.664062 L 305.0625 123.664062 C 298.433594 123.664062 293.070312 129.199219 293.070312 135.820312 L 293.070312 147.320312 C 293.070312 149.558594 294.507812 155.511719 305.101562 156.222656 Z M 305.101562 156.222656 "/>
<path style=" stroke:none;fill-rule:nonzero;fill:rgb(8.239746%,0%,46.669006%);fill-opacity:1;" d="M 317.042969 136.140625 C 317.308594 136.292969 317.554688 136.46875 317.78125 136.667969 C 318.011719 136.871094 318.21875 137.089844 318.402344 137.332031 C 318.589844 137.574219 318.75 137.828125 318.882812 138.101562 C 319.015625 138.375 319.125 138.65625 319.203125 138.953125 C 319.28125 139.246094 319.332031 139.542969 319.351562 139.847656 C 319.371094 140.148438 319.359375 140.453125 319.320312 140.753906 C 319.28125 141.054688 319.210938 141.347656 319.113281 141.636719 C 319.015625 141.925781 318.890625 142.199219 318.738281 142.464844 C 318.585938 142.726562 318.410156 142.972656 318.210938 143.199219 C 318.011719 143.429688 317.789062 143.636719 317.546875 143.820312 C 317.304688 144.007812 317.050781 144.164062 316.777344 144.300781 C 316.503906 144.433594 316.21875 144.539062 315.925781 144.621094 C 315.632812 144.699219 315.332031 144.746094 315.03125 144.765625 C 314.726562 144.789062 314.421875 144.777344 314.121094 144.738281 C 313.820312 144.699219 313.527344 144.628906 313.238281 144.53125 C 312.949219 144.433594 312.671875 144.308594 312.410156 144.15625 C 312.144531 144.003906 311.898438 143.828125 311.671875 143.628906 C 311.441406 143.429688 311.234375 143.207031 311.050781 142.964844 C 310.867188 142.726562 310.707031 142.46875 310.570312 142.195312 C 310.4375 141.921875 310.328125 141.640625 310.25 141.347656 C 310.171875 141.054688 310.121094 140.753906 310.101562 140.453125 C 310.082031 140.148438 310.09375 139.847656 310.132812 139.546875 C 310.171875 139.242188 310.242188 138.949219 310.339844 138.660156 C 310.4375 138.375 310.5625 138.097656 310.714844 137.835938 C 310.867188 137.570312 311.042969 137.324219 311.242188 137.097656 C 311.445312 136.867188 311.664062 136.664062 311.90625 136.476562 C 312.148438 136.292969 312.40625 136.132812 312.675781 136 C 312.949219 135.863281 313.234375 135.757812 313.527344 135.679688 C 313.820312 135.601562 314.121094 135.550781 314.421875 135.53125 C 314.726562 135.511719 315.03125 135.519531 315.332031 135.558594 C 315.632812 135.601562 315.929688 135.667969 316.214844 135.765625 C 316.503906 135.863281 316.78125 135.988281 317.042969 136.140625 Z M 317.042969 136.140625 "/>
<path style=" stroke:none;fill-rule:nonzero;fill:rgb(8.239746%,0%,46.669006%);fill-opacity:1;" d="M 321.460938 133.339844 C 321.078125 130.886719 319.246094 127.511719 317.316406 125.980469 C 314.121094 123.441406 310.289062 121.613281 306.226562 121.160156 C 303.40625 120.851562 300.480469 121.273438 297.894531 122.429688 C 297.710938 124.726562 297.375 126.941406 297.464844 129.140625 C 302.042969 129.519531 305.871094 129.773438 307.222656 129.582031 C 308.0625 137.265625 311.554688 137.011719 315.214844 138.160156 C 318.621094 139.210938 322.144531 137.621094 321.460938 133.339844 Z M 321.460938 133.339844 "/>
<path style=" stroke:none;fill-rule:nonzero;fill:rgb(8.239746%,0%,46.669006%);fill-opacity:1;" d="M 303.011719 138.996094 C 302.535156 138.996094 302.144531 138.609375 302.144531 138.132812 C 302.144531 137.660156 302.535156 137.269531 303.011719 137.269531 C 303.488281 137.269531 303.878906 137.65625 303.878906 138.132812 C 303.878906 138.609375 303.488281 138.996094 303.011719 138.996094 Z M 303.011719 138.996094 "/>
<path style=" stroke:none;fill-rule:nonzero;fill:rgb(8.239746%,0%,46.669006%);fill-opacity:1;" d="M 299.140625 146.050781 C 299.464844 146.050781 299.777344 145.96875 300.046875 145.8125 C 300.558594 145.511719 300.835938 144.96875 300.789062 144.355469 L 300.140625 144.40625 C 300.167969 144.769531 300.011719 145.078125 299.714844 145.253906 C 299.386719 145.445312 298.816406 145.503906 298.183594 145.089844 L 297.828125 145.632812 C 298.246094 145.910156 298.707031 146.050781 299.140625 146.050781 Z M 299.140625 146.050781 "/>
<path style=" stroke:none;fill-rule:nonzero;fill:rgb(8.239746%,0%,46.669006%);fill-opacity:1;" d="M 297.679688 142.496094 L 299.234375 142.496094 L 299.234375 141.847656 L 298.328125 141.847656 L 298.328125 137.054688 L 297.679688 137.054688 Z M 297.679688 142.496094 "/>
<path style=" stroke:none;fill-rule:nonzero;fill:rgb(8.239746%,0%,46.669006%);fill-opacity:1;" d="M 295.074219 138.996094 C 294.597656 138.996094 294.207031 138.609375 294.207031 138.132812 C 294.207031 137.660156 294.597656 137.269531 295.074219 137.269531 C 295.546875 137.269531 295.9375 137.65625 295.9375 138.132812 C 295.9375 138.609375 295.546875 138.996094 295.074219 138.996094 Z M 295.074219 138.996094 "/>
<path style=" stroke:none;fill-rule:nonzero;fill:rgb(8.239746%,0%,46.669006%);fill-opacity:1;" d="M 316.574219 149.5625 C 318.816406 149.5625 320.65625 147.726562 320.65625 145.484375 L 320.65625 143.074219 C 320.65625 140.832031 318.816406 138.996094 316.574219 138.996094 C 314.328125 138.996094 312.492188 140.832031 312.492188 143.074219 L 312.492188 145.484375 C 312.492188 147.726562 314.328125 149.5625 316.574219 149.5625 Z M 316.574219 149.5625 "/>
<path style=" stroke:none;fill-rule:nonzero;fill:rgb(96.859741%,75.689697%,3.138733%);fill-opacity:1;" d="M 316.964844 137.710938 C 317.226562 137.863281 317.472656 138.039062 317.703125 138.242188 C 317.929688 138.441406 318.136719 138.664062 318.324219 138.902344 C 318.507812 139.144531 318.667969 139.402344 318.800781 139.675781 C 318.9375 139.945312 319.042969 140.230469 319.121094 140.523438 C 319.199219 140.816406 319.25 141.113281 319.269531 141.417969 C 319.289062 141.722656 319.28125 142.023438 319.242188 142.324219 C 319.199219 142.625 319.132812 142.921875 319.035156 143.207031 C 318.9375 143.496094 318.8125 143.773438 318.660156 144.035156 C 318.507812 144.296875 318.332031 144.542969 318.128906 144.773438 C 317.929688 145 317.707031 145.207031 317.46875 145.394531 C 317.226562 145.578125 316.96875 145.738281 316.695312 145.871094 C 316.421875 146.007812 316.140625 146.113281 315.84375 146.191406 C 315.550781 146.269531 315.253906 146.320312 314.949219 146.339844 C 314.644531 146.359375 314.34375 146.347656 314.042969 146.308594 C 313.738281 146.269531 313.445312 146.203125 313.15625 146.105469 C 312.867188 146.007812 312.59375 145.882812 312.328125 145.730469 C 312.066406 145.578125 311.820312 145.402344 311.589844 145.199219 C 311.363281 145 311.15625 144.78125 310.96875 144.539062 C 310.785156 144.296875 310.625 144.039062 310.488281 143.769531 C 310.355469 143.496094 310.25 143.210938 310.171875 142.917969 C 310.089844 142.625 310.042969 142.328125 310.023438 142.023438 C 310.003906 141.71875 310.011719 141.417969 310.050781 141.117188 C 310.089844 140.816406 310.160156 140.519531 310.257812 140.234375 C 310.355469 139.945312 310.480469 139.671875 310.632812 139.40625 C 310.785156 139.144531 310.960938 138.898438 311.160156 138.667969 C 311.363281 138.441406 311.582031 138.234375 311.824219 138.050781 C 312.066406 137.863281 312.324219 137.703125 312.597656 137.570312 C 312.871094 137.4375 313.152344 137.328125 313.445312 137.25 C 313.742188 137.171875 314.039062 137.121094 314.34375 137.101562 C 314.648438 137.082031 314.949219 137.09375 315.25 137.132812 C 315.550781 137.171875 315.847656 137.242188 316.136719 137.339844 C 316.421875 137.4375 316.699219 137.5625 316.964844 137.710938 Z M 316.964844 137.710938 "/>
<path style=" stroke:none;fill-rule:nonzero;fill:rgb(8.239746%,0%,46.669006%);fill-opacity:1;" d="M 301.273438 120.179688 C 299.335938 119.277344 294.523438 119.417969 292.707031 120.539062 C 290.890625 121.660156 289.699219 123.730469 289.640625 125.863281 C 289.617188 126.667969 289.753906 127.492188 290.140625 128.199219 C 290.910156 129.605469 292.566406 130.347656 294.171875 130.441406 C 295.777344 130.539062 297.359375 130.09375 298.902344 129.652344 C 300.039062 129.328125 301.207031 128.992188 302.164062 128.296875 C 303.121094 127.605469 303.84375 126.464844 303.714844 125.292969 C 303.59375 124.199219 305.222656 123.324219 304.464844 122.527344 C 303.734375 121.761719 305.429688 120.992188 304.699219 120.226562 Z M 301.273438 120.179688 "/>
<path style=" stroke:none;fill-rule:nonzero;fill:rgb(54.508972%,39.99939%,72.158813%);fill-opacity:1;" d="M 357.121094 290.703125 C 357.074219 290.144531 357.035156 289.585938 357.003906 289.023438 C 356.410156 289.378906 355.6875 289.433594 354.980469 289.429688 C 354.980469 289.679688 354.980469 289.914062 354.988281 290.132812 C 355.039062 291.929688 356.128906 291.566406 357.121094 290.703125 Z M 357.121094 290.703125 "/>
<path style=" stroke:none;fill-rule:nonzero;fill:rgb(54.508972%,39.99939%,72.158813%);fill-opacity:1;" d="M 359.273438 170.945312 C 355.699219 167.847656 350.886719 165.777344 344.597656 165.140625 C 338.007812 164.476562 331.410156 163.921875 324.792969 163.492188 C 309.972656 162.527344 295.125 162.15625 280.277344 162.398438 C 271.734375 162.527344 261.535156 161.101562 254.082031 165.769531 C 247.34375 169.960938 243.855469 177.441406 241.652344 184.800781 C 239.367188 192.429688 234.125 284.605469 236.902344 286.265625 C 245.304688 291.300781 265.445312 285.300781 265.445312 285.300781 C 266.230469 285.65625 267.066406 285.929688 267.953125 286.105469 C 280.4375 290.261719 295.21875 290.085938 307.910156 289.011719 C 323.257812 287.710938 339.128906 289.078125 354.570312 289.425781 C 354.703125 289.429688 354.839844 289.429688 354.980469 289.429688 C 354.980469 280.0625 359.40625 251.515625 360.640625 243.292969 L 360.644531 243.285156 C 361.757812 235.867188 362.554688 228.777344 364.214844 221.421875 C 365.492188 215.777344 366.648438 210.101562 367.453125 204.410156 C 369.308594 191.269531 367.746094 178.261719 359.273438 170.945312 Z M 359.273438 170.945312 "/>
<path style=" stroke:none;fill-rule:nonzero;fill:rgb(95.289612%,96.469116%,100%);fill-opacity:1;" d="M 329.777344 162.824219 L 300.449219 186.929688 C 300.449219 186.929688 286.148438 162.859375 285.253906 162.355469 C 300.105469 162.25 314.957031 162.410156 329.777344 162.824219 Z M 329.777344 162.824219 "/>
<path style=" stroke:none;fill-rule:nonzero;fill:rgb(63.139343%,86.268616%,100%);fill-opacity:1;" d="M 441.164062 173.800781 C 442.023438 172.207031 441.933594 172.417969 441.164062 173.800781 Z M 441.164062 173.800781 "/>
<path style=" stroke:none;fill-rule:nonzero;fill:rgb(100%,63.919067%,0%);fill-opacity:1;" d="M 452.804688 171.160156 L 452.070312 170.976562 C 452.5 169.261719 452.292969 166.550781 451.070312 164.691406 C 450.308594 163.53125 449.261719 162.832031 447.960938 162.617188 L 448.082031 161.871094 C 449.578125 162.117188 450.832031 162.949219 451.703125 164.273438 C 453.105469 166.414062 453.257812 169.34375 452.804688 171.160156 Z M 452.804688 171.160156 "/>
<path style=" stroke:none;fill-rule:nonzero;fill:rgb(96.859741%,75.689697%,3.138733%);fill-opacity:1;" d="M 165.292969 166.980469 C 165.609375 169.828125 168.808594 177.8125 169.773438 180.414062 C 166.835938 184.011719 160.714844 180.652344 156.832031 183.042969 C 156.296875 183.375 155.753906 183.703125 155.207031 184.027344 C 152.941406 177.828125 150.636719 171.640625 148.222656 165.5 C 145.898438 159.589844 144.222656 153.738281 144.367188 152.898438 C 144.710938 150.894531 144.457031 151.527344 144.710938 150.894531 C 144.789062 150.703125 144.882812 150.519531 144.988281 150.34375 C 145.105469 150.152344 145.390625 150.183594 145.472656 150.390625 C 145.683594 150.929688 145.890625 151.464844 146.097656 151.992188 C 147.332031 155.164062 148.496094 158.164062 149.746094 160.648438 C 149.800781 160.753906 149.894531 160.832031 150 160.867188 C 150.109375 160.90625 150.230469 160.902344 150.34375 160.84375 C 150.5625 160.734375 150.652344 160.46875 150.539062 160.25 C 149.308594 157.800781 148.148438 154.824219 146.925781 151.671875 C 146.691406 151.074219 146.457031 150.46875 146.21875 149.863281 C 146.054688 149.453125 146.171875 148.976562 146.515625 148.699219 C 146.527344 148.691406 146.539062 148.679688 146.550781 148.671875 C 146.550781 148.667969 146.554688 148.667969 146.558594 148.664062 C 147.09375 148.238281 147.894531 148.449219 148.148438 149.089844 C 148.351562 149.601562 148.558594 150.125 148.769531 150.660156 C 150.066406 153.953125 151.410156 157.359375 152.824219 159.453125 C 152.878906 159.535156 152.957031 159.589844 153.046875 159.621094 C 153.171875 159.667969 153.320312 159.652344 153.441406 159.570312 C 153.644531 159.433594 153.695312 159.15625 153.558594 158.953125 C 152.199219 156.945312 150.875 153.585938 149.59375 150.335938 C 149.308594 149.609375 149.027344 148.902344 148.753906 148.214844 C 148.554688 147.71875 148.773438 147.15625 149.25 146.917969 L 149.269531 146.90625 C 149.804688 146.640625 150.445312 146.894531 150.667969 147.445312 C 152.175781 151.21875 153.796875 154.976562 155.5 158.648438 C 155.554688 158.761719 155.648438 158.84375 155.757812 158.878906 C 155.863281 158.917969 155.980469 158.914062 156.089844 158.863281 C 156.3125 158.761719 156.410156 158.496094 156.308594 158.277344 C 154.5625 154.519531 152.910156 150.671875 151.371094 146.8125 C 151.253906 146.515625 151.480469 146.191406 151.804688 146.199219 C 152.125 146.203125 152.429688 146.265625 152.707031 146.394531 C 154.296875 147.128906 155.4375 150.402344 156.167969 151.855469 C 157.5625 154.628906 159.898438 158.503906 162.484375 162.75 C 162.167969 162.480469 165.132812 155.28125 166.066406 155.722656 C 166.394531 155.875 166.558594 156.257812 166.5625 156.617188 C 166.566406 156.976562 166.4375 157.324219 166.320312 157.664062 C 165.292969 160.640625 164.945312 163.851562 165.292969 166.980469 Z M 165.292969 166.980469 "/>
<path style=" stroke:none;fill-rule:nonzero;fill:rgb(54.508972%,39.99939%,72.158813%);fill-opacity:1;" d="M 238.777344 216.984375 C 239.152344 216.609375 239.535156 216.238281 239.925781 215.875 C 244.089844 211.953125 248.597656 208.402344 252.972656 204.722656 C 258.238281 200.296875 263.453125 195.777344 268.230469 190.816406 C 268.386719 190.65625 268.542969 190.492188 268.699219 190.328125 C 268.742188 190.28125 268.765625 190.257812 268.78125 190.242188 C 268.792969 190.230469 268.816406 190.203125 268.875 190.140625 C 269.160156 189.835938 269.441406 189.535156 269.71875 189.226562 C 270.269531 188.621094 270.808594 188.011719 271.34375 187.394531 C 272.363281 186.203125 273.347656 184.980469 274.277344 183.71875 C 275.148438 182.539062 275.96875 181.320312 276.714844 180.054688 C 276.90625 179.730469 277.09375 179.402344 277.273438 179.074219 C 277.292969 179.042969 277.28125 179.0625 277.273438 179.085938 C 277.285156 179.0625 277.304688 179.019531 277.339844 178.953125 C 277.410156 178.816406 277.484375 178.675781 277.554688 178.535156 C 277.847656 177.945312 278.125 177.34375 278.375 176.734375 C 278.617188 176.148438 278.832031 175.550781 279.019531 174.949219 C 279.117188 174.632812 279.203125 174.316406 279.289062 173.996094 C 279.292969 173.976562 279.300781 173.960938 279.300781 173.949219 C 279.300781 173.949219 279.300781 173.945312 279.304688 173.929688 C 279.332031 173.796875 279.363281 173.664062 279.390625 173.527344 C 279.5 172.953125 279.578125 172.375 279.625 171.792969 C 279.644531 171.484375 279.648438 171.175781 279.660156 170.871094 C 279.660156 170.847656 279.660156 170.828125 279.664062 170.8125 C 279.65625 170.691406 279.652344 170.566406 279.644531 170.445312 C 279.605469 169.882812 279.527344 169.324219 279.410156 168.773438 C 279.375 168.605469 279.332031 168.4375 279.292969 168.269531 C 279.289062 168.257812 279.289062 168.25 279.285156 168.242188 C 279.203125 167.992188 279.121094 167.742188 279.023438 167.496094 C 278.804688 166.921875 278.527344 166.386719 278.234375 165.847656 C 278.222656 165.824219 278.214844 165.808594 278.207031 165.796875 C 278.199219 165.78125 278.1875 165.765625 278.171875 165.746094 C 278.09375 165.625 278.019531 165.507812 277.9375 165.390625 C 277.757812 165.128906 277.570312 164.875 277.371094 164.625 C 276.957031 164.101562 276.5 163.613281 276.027344 163.136719 C 275.992188 163.101562 275.972656 163.082031 275.964844 163.070312 C 275.941406 163.050781 275.910156 163.027344 275.867188 162.984375 C 275.738281 162.875 275.617188 162.761719 275.488281 162.652344 C 275.207031 162.414062 274.921875 162.179688 274.628906 161.953125 C 250.007812 160.449219 231.527344 179.671875 214.148438 195.136719 C 207.792969 200.792969 198.574219 210.230469 191.742188 205.125 C 183.742188 199.144531 171.871094 178.472656 169.058594 173.421875 C 168.976562 173.265625 168.890625 173.109375 168.808594 172.957031 C 159.339844 174.660156 154.902344 178.238281 154.070312 182.078125 C 156.816406 189.800781 162.15625 202.902344 166.09375 210.101562 C 169.421875 216.171875 173.15625 222.019531 177.277344 227.59375 C 189.976562 244.769531 207.128906 239.824219 223.289062 229.566406 C 228.640625 226.167969 232.996094 221.296875 238.257812 217.738281 C 238.375 217.464844 238.554688 217.207031 238.777344 216.984375 Z M 238.777344 216.984375 "/>
<path style=" stroke:none;fill-rule:nonzero;fill:rgb(63.139343%,86.268616%,100%);fill-opacity:1;" d="M 169.054688 173.417969 C 168.195312 171.824219 168.285156 172.035156 169.054688 173.417969 Z M 169.054688 173.417969 "/>
<path style=" stroke:none;fill-rule:nonzero;fill:rgb(100%,63.919067%,0%);fill-opacity:1;" d="M 157.414062 170.777344 L 158.144531 170.597656 C 157.71875 168.878906 157.925781 166.167969 159.148438 164.308594 C 159.910156 163.148438 160.957031 162.453125 162.257812 162.234375 L 162.132812 161.488281 C 160.636719 161.738281 159.386719 162.570312 158.515625 163.894531 C 157.109375 166.03125 156.957031 168.960938 157.414062 170.777344 Z M 157.414062 170.777344 "/>
<path style=" stroke:none;fill-rule:nonzero;fill:rgb(96.859741%,75.689697%,3.138733%);fill-opacity:1;" d="M 111.253906 293.46875 L 352.617188 293.46875 L 352.617188 307.246094 L 111.253906 307.246094 Z M 111.253906 293.46875 "/>
<path style=" stroke:none;fill-rule:nonzero;fill:rgb(95.289612%,96.469116%,100%);fill-opacity:1;" d="M 302.355469 276.199219 C 300.203125 275.628906 297.449219 274.164062 296.007812 273.113281 C 294.445312 271.976562 292.269531 269.699219 291.3125 267.71875 C 290.398438 265.835938 289.996094 264.144531 290.078125 262.550781 C 290.1875 260.527344 291.160156 258.734375 292.621094 257.878906 C 293.929688 257.113281 295.648438 257.0625 297.339844 257.746094 C 298.800781 258.335938 300.140625 259.179688 301.53125 259.925781 C 301.769531 260.050781 304.726562 261.90625 303.167969 262.429688 C 302.753906 262.570312 302.320312 262.332031 301.941406 262.101562 C 299.378906 260.542969 296.539062 257.628906 293.5 259.277344 C 287.054688 262.777344 296.828125 272.40625 300.339844 273.96875 C 300.769531 274.15625 301.214844 274.328125 301.679688 274.367188 C 302.277344 274.414062 302.871094 274.238281 303.472656 274.257812 C 306.03125 274.34375 306.917969 277.40625 302.355469 276.199219 Z M 302.355469 276.199219 "/>
<path style=" stroke:none;fill-rule:nonzero;fill:rgb(95.289612%,96.469116%,100%);fill-opacity:1;" d="M 309.304688 284.0625 L 327.523438 284.0625 C 327.554688 284.050781 327.585938 284.042969 327.617188 284.03125 C 327.835938 283.753906 328.082031 283.429688 328.351562 283.050781 C 329.042969 282.082031 329.875 280.792969 330.703125 279.207031 C 330.714844 279.183594 330.726562 279.160156 330.734375 279.144531 C 330.796875 279.027344 330.855469 278.90625 330.917969 278.789062 C 330.972656 278.679688 331.027344 278.570312 331.082031 278.460938 C 331.09375 278.433594 331.105469 278.410156 331.117188 278.386719 C 331.226562 278.167969 331.332031 277.941406 331.4375 277.710938 C 331.609375 277.339844 331.777344 276.960938 331.9375 276.582031 C 331.980469 276.476562 332.027344 276.367188 332.070312 276.261719 C 332.261719 275.785156 332.445312 275.304688 332.621094 274.816406 C 332.648438 274.742188 332.675781 274.667969 332.699219 274.59375 C 332.730469 274.507812 332.761719 274.417969 332.792969 274.328125 C 332.925781 273.9375 333.050781 273.539062 333.171875 273.140625 C 333.171875 273.136719 333.175781 273.132812 333.175781 273.128906 C 333.222656 272.980469 333.265625 272.828125 333.308594 272.675781 C 333.308594 272.671875 333.3125 272.667969 333.3125 272.664062 C 333.351562 272.523438 333.390625 272.386719 333.429688 272.25 C 333.433594 272.226562 333.441406 272.203125 333.445312 272.179688 C 333.773438 270.96875 334.050781 269.683594 334.253906 268.320312 C 334.28125 268.15625 334.304688 267.988281 334.328125 267.824219 C 334.328125 267.816406 334.328125 267.808594 334.332031 267.796875 C 334.351562 267.640625 334.371094 267.484375 334.390625 267.328125 C 334.410156 267.160156 334.429688 266.996094 334.449219 266.828125 C 334.46875 266.664062 334.484375 266.496094 334.5 266.328125 C 334.515625 266.195312 334.527344 266.058594 334.535156 265.925781 C 334.539062 265.871094 334.542969 265.820312 334.546875 265.769531 C 334.558594 265.648438 334.566406 265.527344 334.574219 265.40625 C 334.574219 265.378906 334.578125 265.351562 334.578125 265.324219 L 334.578125 265.316406 C 334.667969 263.9375 334.679688 262.492188 334.597656 260.992188 C 334.589844 260.847656 334.582031 260.703125 334.570312 260.5625 C 334.515625 259.742188 334.433594 258.902344 334.316406 258.046875 L 302.675781 258.046875 C 302.402344 262.800781 302.664062 267.523438 303.9375 272.046875 C 305.058594 276.023438 306.476562 281.78125 309.304688 284.0625 Z M 309.304688 284.0625 "/>
<use xlink:href="#surface5" transform="matrix(1,0,0,1,298,196)" mask="url(#mask0)"/>
<path style=" stroke:none;fill-rule:nonzero;fill:rgb(94.509888%,43.528748%,40.388489%);fill-opacity:1;" d="M 101.535156 284.445312 L 82.449219 284.445312 C 81.601562 284.445312 80.917969 283.761719 80.917969 282.917969 L 80.917969 242.070312 L 103.066406 242.070312 L 103.066406 282.917969 C 103.066406 283.761719 102.378906 284.445312 101.535156 284.445312 Z M 101.535156 284.445312 "/>
<path style=" stroke:none;fill-rule:nonzero;fill:rgb(89.019775%,90.979004%,98.81897%);fill-opacity:1;" d="M 331.84375 83.632812 C 340.289062 112.191406 380.054688 130.523438 420.664062 124.578125 C 461.273438 118.628906 487.347656 90.65625 478.902344 62.097656 C 470.457031 33.539062 430.691406 15.207031 390.082031 21.152344 C 349.472656 27.097656 323.402344 55.070312 331.84375 83.632812 Z M 331.84375 83.632812 "/>
<path style=" stroke:none;fill-rule:nonzero;fill:rgb(89.019775%,90.979004%,98.81897%);fill-opacity:1;" d="M 371.148438 119.691406 C 371.148438 119.691406 357.972656 136.324219 337.132812 134.628906 C 337.132812 134.628906 355.542969 122.667969 364.753906 101.957031 Z M 371.148438 119.691406 "/>
<path style=" stroke:none;fill-rule:nonzero;fill:rgb(96.859741%,75.689697%,3.138733%);fill-opacity:1;" d="M 351.21875 307.484375 L 376.613281 307.484375 L 421.578125 470.84375 L 433.160156 470.84375 L 391.332031 288.597656 L 336.054688 288.597656 L 299.683594 470.84375 L 312.390625 470.84375 Z M 351.21875 307.484375 "/>
<path style=" stroke:none;fill-rule:nonzero;fill:rgb(38.819885%,38.038635%,70.979309%);fill-opacity:1;" d="M 251.226562 284.0625 L 125.21875 284.0625 C 125.1875 284.0625 125.160156 284.046875 125.152344 284.015625 C 124.597656 282.152344 109.46875 226.613281 106.691406 216.414062 C 106.46875 215.601562 107.070312 214.804688 107.914062 214.792969 C 118.566406 214.644531 177.542969 213.789062 199.601562 213.019531 C 201.035156 212.972656 202.316406 212.929688 203.421875 212.886719 C 205.402344 212.820312 206.828125 212.769531 207.570312 212.742188 C 207.910156 212.730469 208.207031 212.964844 208.28125 213.296875 L 221.8125 275.671875 L 241.097656 275.671875 C 243.574219 275.671875 245.878906 276.550781 247.679688 278.042969 C 249.476562 279.53125 250.765625 281.632812 251.226562 284.0625 Z M 251.226562 284.0625 "/>
<path style=" stroke:none;fill-rule:nonzero;fill:rgb(100%,100%,100%);fill-opacity:1;" d="M 162.851562 248.328125 C 162.851562 248.675781 162.785156 249.007812 162.652344 249.328125 C 162.519531 249.652344 162.328125 249.933594 162.082031 250.179688 C 161.835938 250.425781 161.550781 250.617188 161.230469 250.75 C 160.90625 250.882812 160.574219 250.949219 160.226562 250.949219 C 159.875 250.949219 159.542969 250.882812 159.21875 250.75 C 158.898438 250.617188 158.613281 250.425781 158.367188 250.179688 C 158.121094 249.933594 157.933594 249.652344 157.796875 249.328125 C 157.664062 249.007812 157.597656 248.675781 157.597656 248.328125 C 157.597656 247.976562 157.664062 247.644531 157.796875 247.324219 C 157.933594 247 158.121094 246.71875 158.367188 246.472656 C 158.613281 246.226562 158.898438 246.035156 159.21875 245.902344 C 159.542969 245.769531 159.875 245.703125 160.226562 245.703125 C 160.574219 245.703125 160.90625 245.769531 161.230469 245.902344 C 161.550781 246.035156 161.835938 246.226562 162.082031 246.472656 C 162.328125 246.71875 162.519531 247 162.652344 247.324219 C 162.785156 247.644531 162.851562 247.976562 162.851562 248.328125 Z M 162.851562 248.328125 "/>
<path style=" stroke:none;fill-rule:nonzero;fill:rgb(89.019775%,90.979004%,98.81897%);fill-opacity:1;" d="M 30.800781 284.320312 L 415.832031 284.320312 L 415.832031 295.21875 L 30.800781 295.21875 Z M 30.800781 284.320312 "/>
</g>
</svg>
