<?xml version="1.0" encoding="UTF-8"?>
<svg xmlns="http://www.w3.org/2000/svg" xmlns:xlink="http://www.w3.org/1999/xlink" width="37.5pt" height="37.499999pt" viewBox="0 0 37.5 37.499999" version="1.2">
<defs>
<clipPath id="clip1">
  <path d="M 0 0 L 37.007812 0 L 37.007812 10 L 0 10 Z M 0 0 "/>
</clipPath>
<clipPath id="clip2">
  <path d="M 0 28 L 37.007812 28 L 37.007812 37.007812 L 0 37.007812 Z M 0 28 "/>
</clipPath>
<clipPath id="clip3">
  <path d="M 0 14 L 37.007812 14 L 37.007812 24 L 0 24 Z M 0 14 "/>
</clipPath>
</defs>
<g id="surface1">
<g clip-path="url(#clip1)" clip-rule="nonzero">
<path style=" stroke:none;fill-rule:nonzero;fill:rgb(100%,100%,100%);fill-opacity:1;" d="M 36.714844 9.261719 L 0.824219 9.261719 C 0.613281 9.257812 0.429688 9.183594 0.277344 9.035156 C 0.125 8.886719 0.0429688 8.707031 0.03125 8.496094 L 0.03125 3.878906 C 0.0390625 3.355469 0.140625 2.855469 0.34375 2.375 C 0.546875 1.894531 0.835938 1.46875 1.203125 1.101562 C 1.574219 0.734375 2.003906 0.453125 2.484375 0.253906 C 2.96875 0.0546875 3.46875 -0.0429688 3.992188 -0.0429688 L 33.582031 -0.0429688 C 33.835938 -0.0429688 34.089844 -0.015625 34.34375 0.0351562 C 34.59375 0.0859375 34.839844 0.160156 35.078125 0.257812 C 35.3125 0.355469 35.539062 0.476562 35.75 0.621094 C 35.964844 0.765625 36.160156 0.925781 36.34375 1.109375 C 36.523438 1.289062 36.6875 1.488281 36.828125 1.703125 C 36.96875 1.917969 37.089844 2.140625 37.1875 2.378906 C 37.285156 2.617188 37.355469 2.863281 37.40625 3.113281 C 37.453125 3.367188 37.480469 3.621094 37.476562 3.878906 L 37.476562 8.496094 C 37.480469 8.707031 37.40625 8.886719 37.257812 9.039062 C 37.105469 9.191406 36.925781 9.265625 36.714844 9.261719 Z M 36.714844 9.261719 "/>
</g>
<g clip-path="url(#clip2)" clip-rule="nonzero">
<path style=" stroke:none;fill-rule:nonzero;fill:rgb(100%,100%,100%);fill-opacity:1;" d="M 33.582031 37.382812 L 3.992188 37.382812 C 3.46875 37.382812 2.964844 37.285156 2.484375 37.085938 C 2 36.886719 1.574219 36.605469 1.203125 36.238281 C 0.832031 35.871094 0.546875 35.445312 0.34375 34.964844 C 0.140625 34.484375 0.0390625 33.984375 0.03125 33.460938 L 0.03125 28.847656 C 0.0429688 28.632812 0.125 28.453125 0.277344 28.304688 C 0.429688 28.15625 0.613281 28.082031 0.824219 28.074219 L 36.714844 28.074219 C 36.925781 28.074219 37.105469 28.152344 37.257812 28.300781 C 37.40625 28.453125 37.480469 28.632812 37.476562 28.847656 L 37.476562 33.460938 C 37.480469 33.71875 37.453125 33.972656 37.40625 34.226562 C 37.355469 34.476562 37.285156 34.722656 37.1875 34.960938 C 37.089844 35.199219 36.96875 35.425781 36.828125 35.636719 C 36.6875 35.851562 36.523438 36.050781 36.34375 36.230469 C 36.164062 36.414062 35.964844 36.578125 35.753906 36.71875 C 35.539062 36.863281 35.3125 36.984375 35.078125 37.082031 C 34.839844 37.183594 34.59375 37.257812 34.34375 37.308594 C 34.09375 37.359375 33.835938 37.382812 33.582031 37.382812 Z M 33.582031 37.382812 "/>
</g>
<g clip-path="url(#clip3)" clip-rule="nonzero">
<path style=" stroke:none;fill-rule:nonzero;fill:rgb(100%,100%,100%);fill-opacity:1;" d="M 36.714844 23.128906 L 0.824219 23.128906 C 0.613281 23.125 0.433594 23.050781 0.28125 22.90625 C 0.128906 22.757812 0.046875 22.578125 0.03125 22.371094 L 0.03125 14.96875 C 0.046875 14.757812 0.128906 14.578125 0.28125 14.433594 C 0.433594 14.289062 0.613281 14.214844 0.824219 14.210938 L 36.714844 14.210938 C 36.925781 14.207031 37.105469 14.28125 37.253906 14.429688 C 37.402344 14.578125 37.476562 14.757812 37.476562 14.96875 L 37.476562 22.371094 C 37.476562 22.578125 37.402344 22.761719 37.253906 22.910156 C 37.105469 23.058594 36.925781 23.132812 36.714844 23.128906 Z M 36.714844 23.128906 "/>
</g>
</g>
</svg>
