<?xml version="1.0" encoding="UTF-8"?>
<svg xmlns="http://www.w3.org/2000/svg" xmlns:xlink="http://www.w3.org/1999/xlink" width="397.5pt" height="397.500002pt" viewBox="0 0 397.5 397.500002" version="1.2">
<defs>
<clipPath id="clip1">
  <path d="M 181 199 L 227 199 L 227 232.058594 L 181 232.058594 Z M 181 199 "/>
</clipPath>
<clipPath id="clip2">
  <path d="M 165.019531 199 L 198 199 L 198 227 L 165.019531 227 Z M 165.019531 199 "/>
</clipPath>
<clipPath id="clip3">
  <path d="M 200 165 L 232.519531 165 L 232.519531 215 L 200 215 Z M 200 165 "/>
</clipPath>
<clipPath id="clip4">
  <path d="M 165.019531 164.847656 L 203 164.847656 L 203 202 L 165.019531 202 Z M 165.019531 164.847656 "/>
</clipPath>
</defs>
<g id="surface1">
<g clip-path="url(#clip1)" clip-rule="nonzero">
<path style=" stroke:none;fill-rule:nonzero;fill:rgb(32.548523%,71.369934%,69.40918%);fill-opacity:1;" d="M 199.316406 199.867188 L 181.730469 226.949219 C 186.613281 230.0625 192.386719 231.914062 198.59375 232.050781 C 198.832031 232.054688 199.074219 232.058594 199.316406 232.058594 C 204.535156 232.058594 209.464844 230.839844 213.832031 228.679688 C 219.160156 226.042969 223.652344 222.003906 226.816406 217.054688 L 199.316406 199.867188 "/>
</g>
<g clip-path="url(#clip2)" clip-rule="nonzero">
<path style=" stroke:none;fill-rule:nonzero;fill:rgb(97.648621%,67.059326%,4.708862%);fill-opacity:1;" d="M 179.945312 226.242188 L 197.53125 199.160156 L 165.328125 203.625 C 166.65625 213.113281 172.160156 221.277344 179.945312 226.242188 "/>
</g>
<g clip-path="url(#clip3)" clip-rule="nonzero">
<path style=" stroke:none;fill-rule:nonzero;fill:rgb(38.42926%,16.468811%,44.309998%);fill-opacity:1;" d="M 232.527344 196.226562 C 232.230469 188.039062 228.847656 180.628906 223.496094 175.105469 C 218.597656 170.050781 212.046875 166.578125 204.707031 165.53125 L 200.03125 197.394531 L 227.53125 214.578125 C 230.707031 209.605469 232.546875 203.710938 232.546875 197.394531 C 232.546875 197.003906 232.539062 196.613281 232.527344 196.226562 "/>
</g>
<g clip-path="url(#clip4)" clip-rule="nonzero">
<path style=" stroke:none;fill-rule:nonzero;fill:rgb(92.158508%,9.01947%,47.44873%);fill-opacity:1;" d="M 165.015625 197.039062 C 165.015625 198.554688 165.121094 200.042969 165.328125 201.503906 L 197.53125 197.039062 L 202.207031 165.179688 C 200.679688 164.960938 199.121094 164.847656 197.53125 164.847656 C 179.574219 164.847656 165.015625 179.257812 165.015625 197.039062 "/>
</g>
</g>
</svg>
