<?xml version="1.0" encoding="UTF-8"?>
<svg xmlns="http://www.w3.org/2000/svg" xmlns:xlink="http://www.w3.org/1999/xlink" width="397.5pt" height="397.500002pt" viewBox="0 0 397.5 397.500002" version="1.2">
<defs>
<clipPath id="clip1">
  <path d="M 184 189 L 232.519531 189 L 232.519531 209 L 184 209 Z M 184 189 "/>
</clipPath>
<clipPath id="clip2">
  <path d="M 165.019531 172.242188 L 213 172.242188 L 213 228.492188 L 165.019531 228.492188 Z M 165.019531 172.242188 "/>
</clipPath>
</defs>
<g id="surface1">
<g clip-path="url(#clip1)" clip-rule="nonzero">
<path style=" stroke:none;fill-rule:nonzero;fill:rgb(45.878601%,60.389709%,79.998779%);fill-opacity:1;" d="M 232.53125 194.78125 L 224.660156 189.144531 L 224.660156 192.527344 L 208.914062 192.527344 L 193.167969 203.792969 L 184.171875 203.792969 L 184.171875 208.300781 L 195.417969 208.300781 L 211.164062 197.035156 L 224.660156 197.035156 L 224.660156 200.414062 Z M 232.53125 194.78125 "/>
</g>
<path style=" stroke:none;fill-rule:nonzero;fill:rgb(34.509277%,45.098877%,59.999084%);fill-opacity:1;" d="M 225.785156 207.175781 L 217.910156 201.539062 L 217.910156 204.921875 L 211.164062 204.921875 L 195.417969 193.652344 L 184.171875 193.652344 L 184.171875 198.160156 L 193.167969 198.160156 L 208.914062 209.429688 L 217.910156 209.429688 L 217.910156 212.808594 Z M 225.785156 207.175781 "/>
<g clip-path="url(#clip2)" clip-rule="nonzero">
<path style=" stroke:none;fill-rule:nonzero;fill:rgb(28.62854%,34.509277%,40.388489%);fill-opacity:1;" d="M 205.539062 211.683594 L 204.675781 212.808594 C 201.671875 215.609375 197.640625 217.316406 193.214844 217.316406 C 183.902344 217.316406 176.34375 209.746094 176.34375 200.414062 C 176.34375 191.082031 183.902344 183.511719 193.214844 183.511719 C 197.007812 183.511719 200.511719 184.769531 203.417969 187.429688 L 205.539062 189.144531 L 212.328125 184.085938 L 209.191406 181.652344 L 211.164062 178.269531 L 203.378906 173.761719 L 201.480469 177.042969 C 200.265625 176.613281 199.003906 176.277344 197.710938 176.039062 L 197.710938 172.242188 L 188.714844 172.242188 L 188.714844 176.039062 C 187.421875 176.277344 186.160156 176.613281 184.945312 177.042969 L 183.046875 173.761719 L 175.261719 178.269531 L 177.152344 181.5625 C 176.164062 182.40625 175.242188 183.332031 174.398438 184.324219 L 171.113281 182.429688 L 166.613281 190.226562 L 169.886719 192.132812 C 169.460938 193.347656 169.121094 194.609375 168.886719 195.90625 L 165.097656 195.90625 L 165.097656 204.921875 L 168.886719 204.921875 C 169.121094 206.21875 169.460938 207.480469 169.886719 208.695312 L 166.613281 210.601562 L 171.113281 218.398438 L 174.398438 216.507812 C 175.242188 217.496094 176.164062 218.421875 177.152344 219.265625 L 175.261719 222.558594 L 183.046875 227.066406 L 184.945312 223.785156 C 186.160156 224.214844 187.421875 224.550781 188.714844 224.789062 L 188.714844 228.585938 L 197.710938 228.585938 L 197.710938 224.789062 C 199.003906 224.550781 200.265625 224.214844 201.480469 223.785156 L 203.378906 227.066406 L 211.164062 222.558594 L 208.914062 219.570312 L 211.78125 216.386719 Z M 205.539062 211.683594 "/>
</g>
<path style=" stroke:none;fill-rule:nonzero;fill:rgb(24.708557%,29.798889%,34.899902%);fill-opacity:1;" d="M 193.167969 219.570312 C 182.625 219.570312 174.050781 210.976562 174.050781 200.414062 C 174.050781 189.851562 182.625 181.257812 193.167969 181.257812 C 198.605469 181.257812 203.792969 183.585938 207.410156 187.644531 L 204.054688 190.644531 C 201.289062 187.542969 197.324219 185.765625 193.167969 185.765625 C 185.105469 185.765625 178.546875 192.335938 178.546875 200.414062 C 178.546875 208.492188 185.105469 215.0625 193.167969 215.0625 C 197.324219 215.0625 201.289062 213.285156 204.054688 210.183594 L 207.410156 213.183594 C 203.792969 217.242188 198.605469 219.570312 193.167969 219.570312 Z M 193.167969 219.570312 "/>
</g>
</svg>
