<?xml version="1.0" encoding="UTF-8"?>
<svg xmlns="http://www.w3.org/2000/svg" xmlns:xlink="http://www.w3.org/1999/xlink" width="397.5pt" height="397.500002pt" viewBox="0 0 397.5 397.500002" version="1.2">
<defs>
<clipPath id="clip1">
  <path d="M 165.019531 181 L 216 181 L 216 225.765625 L 165.019531 225.765625 Z M 165.019531 181 "/>
</clipPath>
<clipPath id="clip2">
  <path d="M 182 171.765625 L 232.519531 171.765625 L 232.519531 217 L 182 217 Z M 182 171.765625 "/>
</clipPath>
</defs>
<g id="surface1">
<g clip-path="url(#clip1)" clip-rule="nonzero">
<path style=" stroke:none;fill-rule:nonzero;fill:rgb(99.609375%,77.648926%,45.489502%);fill-opacity:1;" d="M 198.792969 212.289062 C 191.335938 212.289062 185.28125 206.242188 185.28125 198.78125 L 192.039062 198.78125 L 178.527344 181.222656 L 165.019531 198.78125 L 171.773438 198.78125 C 171.773438 213.699219 183.875 225.800781 198.792969 225.800781 C 205.097656 225.800781 210.882812 223.621094 215.480469 220.003906 L 207.253906 209.304688 C 204.9375 211.167969 201.996094 212.289062 198.792969 212.289062 "/>
</g>
<g clip-path="url(#clip2)" clip-rule="nonzero">
<path style=" stroke:none;fill-rule:nonzero;fill:rgb(12.548828%,76.858521%,79.60968%);fill-opacity:1;" d="M 225.8125 198.78125 C 225.8125 183.867188 213.714844 171.765625 198.792969 171.765625 C 192.488281 171.765625 186.703125 173.945312 182.105469 177.5625 L 190.332031 188.257812 C 192.652344 186.394531 195.589844 185.273438 198.792969 185.273438 C 206.253906 185.273438 212.300781 191.324219 212.300781 198.78125 L 205.546875 198.78125 L 219.054688 216.34375 L 232.566406 198.78125 L 225.8125 198.78125 "/>
</g>
</g>
</svg>
