<?xml version="1.0" encoding="UTF-8"?>
<svg xmlns="http://www.w3.org/2000/svg" xmlns:xlink="http://www.w3.org/1999/xlink" width="397.5pt" height="397.500002pt" viewBox="0 0 397.5 397.500002" version="1.2">
<defs>
<clipPath id="clip1">
  <path d="M 134.015625 119.25 L 262.890625 119.25 L 262.890625 278.238281 L 134.015625 278.238281 Z M 134.015625 119.25 "/>
</clipPath>
<clipPath id="clip2">
  <path d="M 165.851562 156.773438 L 232.703125 156.773438 L 232.703125 278.238281 L 165.851562 278.238281 Z M 165.851562 156.773438 "/>
</clipPath>
<clipPath id="clip3">
  <path d="M 137.519531 119.25 L 262.890625 119.25 L 262.890625 272.527344 L 137.519531 272.527344 Z M 137.519531 119.25 "/>
</clipPath>
<clipPath id="clip4">
  <path d="M 134.015625 124.019531 L 259 124.019531 L 259 278.238281 L 134.015625 278.238281 Z M 134.015625 124.019531 "/>
</clipPath>
</defs>
<g id="surface1">
<g clip-path="url(#clip1)" clip-rule="nonzero">
<path style=" stroke:none;fill-rule:nonzero;fill:rgb(91.369629%,56.858826%,53.729248%);fill-opacity:1;" d="M 257.9375 262.507812 L 257.9375 262.515625 C 257.929688 262.523438 257.921875 262.53125 257.914062 262.542969 C 257.023438 263.785156 256.015625 264.835938 254.886719 265.648438 C 249.953125 270.121094 246.601562 270.28125 246.597656 270.28125 C 241.054688 272.699219 234.199219 274.328125 231.328125 269.957031 C 231.035156 269.507812 230.789062 269.007812 230.589844 268.46875 C 229.542969 271.117188 227.910156 273.886719 225.367188 275.988281 C 217.300781 276.269531 212.699219 272.597656 211.132812 271.0625 C 208.46875 271.5 204.789062 271.996094 200.496094 272.273438 C 200.503906 272.40625 200.402344 272.519531 200.273438 272.523438 C 200.269531 272.527344 200.265625 272.527344 200.261719 272.527344 C 200.136719 272.527344 200.03125 272.429688 200.023438 272.300781 C 196.472656 272.519531 192.53125 272.585938 188.414062 272.347656 C 187.085938 273.847656 184.46875 276.707031 182.519531 278.234375 C 168.277344 278.558594 162.902344 268.683594 162.902344 268.683594 L 163.304688 265.960938 C 160.894531 264.664062 158.597656 263.132812 156.476562 261.324219 L 156.613281 259.546875 C 152.164062 263.34375 146.914062 265.882812 144.335938 263.832031 C 144.117188 263.65625 143.917969 263.453125 143.742188 263.210938 C 141.535156 260.832031 133.917969 251.804688 134.019531 240.777344 C 134.136719 227.890625 141.871094 212.417969 141.871094 212.417969 C 141.871094 212.417969 141.863281 212.433594 141.855469 212.453125 C 143.023438 209.835938 144.316406 207.316406 145.703125 205.039062 C 149.257812 199.203125 155.554688 192.824219 161.660156 188.035156 L 156.476562 185.054688 C 158.011719 176.898438 164.761719 173.941406 164.761719 173.941406 L 171.542969 179.800781 C 172.050781 179.390625 175.601562 176.714844 178.925781 179.183594 C 178.941406 179.164062 178.953125 179.144531 178.972656 179.132812 C 179.078125 179.054688 179.226562 179.074219 179.304688 179.179688 C 179.308594 179.1875 179.324219 179.210938 179.34375 179.238281 C 179.855469 179.070312 181.136719 178.765625 182.335938 179.351562 C 184.632812 178.777344 191.363281 177.273438 192.261719 179.105469 L 192.578125 175.710938 L 192.863281 172.609375 L 192.898438 172.238281 C 192.597656 172.113281 192.296875 171.980469 192.007812 171.835938 C 188.996094 170.347656 187.214844 167.839844 186.296875 163.289062 C 185.878906 163.40625 185.4375 163.460938 184.980469 163.429688 C 182.824219 163.28125 181.191406 161.414062 181.335938 159.257812 C 181.453125 157.582031 182.613281 156.226562 184.136719 155.777344 C 182.917969 152.800781 183.175781 150.304688 183.914062 148.378906 C 182.425781 147.769531 180.835938 147.082031 179.289062 146.363281 C 175.671875 144.757812 171.136719 142.667969 170.421875 141.972656 C 169.199219 140.789062 169.898438 139.328125 171.777344 137.578125 C 173.65625 135.828125 186.207031 125.371094 189.164062 124.292969 C 193.839844 121.179688 197.96875 118.945312 199.523438 119.28125 C 203.621094 120.171875 229.816406 132.367188 229.90625 133.703125 C 229.953125 134.339844 227.019531 137.949219 223.5625 141.585938 C 230.492188 147.828125 230.824219 152.640625 230.605469 154.535156 C 231.207031 154.726562 232.089844 155.199219 232.480469 156.371094 C 233.523438 159.496094 232.867188 163.023438 232.867188 163.023438 C 230.648438 164.804688 226.984375 162.726562 226.984375 162.726562 C 226.984375 162.726562 227.621094 160.992188 227.925781 158.488281 C 228.308594 155.324219 229.277344 154.730469 229.277344 154.730469 L 229.457031 154.652344 C 230.019531 149.414062 226.414062 144.984375 223.089844 142.082031 C 221.019531 144.226562 218.808594 146.335938 216.957031 147.796875 C 218.171875 150.347656 217.5625 153.589844 216.859375 155.8125 C 218.570312 156.367188 219.757812 158.023438 219.628906 159.898438 C 219.476562 162.109375 217.5625 163.78125 215.347656 163.628906 C 214.9375 163.601562 214.542969 163.511719 214.179688 163.371094 C 213.359375 167.523438 211.832031 169.59375 209.226562 171.425781 C 208.757812 171.757812 208.265625 172.035156 207.742188 172.273438 L 208.710938 179.550781 C 208.726562 179.542969 215.671875 176.429688 223.949219 179.027344 C 223.949219 179.027344 234.007812 179.378906 241.464844 189.667969 C 248.925781 199.953125 259.695312 224.078125 262.066406 235.308594 C 263.960938 244.320312 262.585938 255.980469 257.9375 262.507812 "/>
</g>
<g clip-path="url(#clip2)" clip-rule="nonzero">
<path style=" stroke:none;fill-rule:nonzero;fill:rgb(86.268616%,30.198669%,30.589294%);fill-opacity:1;" d="M 183.886719 180.890625 C 183.898438 180.886719 183.90625 180.875 183.917969 180.871094 C 184.042969 180.828125 184.175781 180.894531 184.21875 181.015625 C 184.222656 181.019531 184.226562 181.035156 184.234375 181.050781 C 184.886719 180.964844 186.726562 181.019531 187.492188 184.058594 C 187.617188 184.027344 187.746094 184.101562 187.777344 184.230469 C 187.78125 184.234375 187.78125 184.246094 187.785156 184.261719 C 188.339844 184.273438 189.703125 184.703125 190.230469 188.574219 C 190.230469 188.574219 190.230469 190.472656 189.742188 193.441406 L 190.371094 193.945312 C 191.0625 188.773438 191.664062 184.632812 192.019531 182.152344 C 192.0625 181.863281 192.101562 181.59375 192.132812 181.351562 C 192.273438 180.382812 192.351562 179.78125 192.359375 179.617188 C 192.367188 179.425781 192.335938 179.253906 192.261719 179.105469 C 191.363281 177.273438 184.632812 178.777344 182.335938 179.351562 C 182.902344 179.628906 183.449219 180.105469 183.886719 180.890625 Z M 186.070312 245.597656 C 186.070312 234.609375 187.144531 221.625 188.40625 210.085938 L 185.210938 207.003906 C 184.964844 207.46875 184.710938 207.933594 184.441406 208.398438 C 179.207031 217.390625 172.542969 236.523438 168.28125 240.511719 C 168.222656 240.566406 168.164062 240.621094 168.101562 240.675781 C 168.050781 241.15625 168.003906 241.636719 167.957031 242.113281 C 167.957031 242.121094 167.957031 242.125 167.957031 242.132812 L 168.167969 241.726562 L 165.878906 267.945312 C 171.820312 276.667969 182.519531 278.234375 182.519531 278.234375 C 184.46875 276.707031 187.085938 273.847656 188.414062 272.347656 C 188.941406 271.753906 189.265625 271.375 189.265625 271.375 C 189.265625 271.375 186.070312 256.949219 186.070312 245.597656 Z M 231.585938 256.933594 C 230.3125 252.628906 229.242188 248.101562 228.34375 243.488281 L 224.300781 239.570312 C 222.683594 240.800781 220.789062 241.746094 218.621094 242.050781 L 210.011719 231.964844 L 208.621094 233.242188 C 208.558594 233.257812 208.503906 233.269531 208.445312 233.28125 C 208.730469 239.371094 209.105469 244.675781 209.511719 249.210938 C 209.488281 247.828125 209.484375 246.976562 209.484375 246.976562 C 209.800781 251.476562 212.230469 269.601562 212.230469 269.601562 C 218.078125 275.171875 224.503906 275.910156 225.289062 275.980469 C 225.300781 275.980469 225.308594 275.980469 225.320312 275.980469 C 225.328125 275.984375 225.335938 275.984375 225.34375 275.984375 C 225.359375 275.984375 225.367188 275.988281 225.367188 275.988281 C 227.910156 273.886719 229.542969 271.117188 230.589844 268.46875 C 232.375 263.960938 232.472656 259.789062 232.472656 259.789062 C 232.164062 258.847656 231.871094 257.894531 231.585938 256.933594 Z M 208.597656 181.941406 C 208.542969 183.179688 208.488281 184.410156 208.441406 185.625 C 208.121094 193.675781 207.96875 201.128906 207.941406 207.996094 L 208.621094 208.539062 C 212.074219 207.90625 219.328125 209.472656 223.296875 212.734375 C 222.136719 203.378906 220.167969 183.34375 223.949219 179.027344 C 215.671875 176.429688 208.726562 179.542969 208.710938 179.550781 C 208.671875 180.351562 208.632812 181.148438 208.597656 181.941406 Z M 221.519531 225.378906 L 225.535156 227.320312 C 223.761719 226.3125 222.292969 225.570312 221.519531 225.378906 Z M 214.242188 228.097656 L 213.8125 228.492188 C 215.449219 227.195312 217.390625 225.929688 219.183594 225.457031 C 216.667969 226.085938 214.242188 228.097656 214.242188 228.097656 Z M 195.550781 160.976562 C 195.566406 159.378906 194.628906 157.992188 193.269531 157.351562 C 193.054688 157.730469 192.742188 157.964844 192.402344 157.960938 C 191.960938 157.957031 191.582031 157.5625 191.386719 156.980469 C 189.300781 157.078125 187.628906 158.785156 187.605469 160.898438 C 187.585938 163.089844 189.347656 164.886719 191.539062 164.90625 C 193.734375 164.925781 195.53125 163.167969 195.550781 160.976562 Z M 206.957031 157.628906 C 207.136719 157.828125 207.351562 157.945312 207.585938 157.945312 C 208.015625 157.953125 208.390625 157.574219 208.59375 157.015625 C 208.785156 156.988281 208.984375 156.96875 209.183594 156.972656 C 211.378906 156.992188 213.140625 158.785156 213.121094 160.976562 C 213.097656 163.167969 211.300781 164.925781 209.109375 164.90625 C 206.914062 164.886719 205.152344 163.089844 205.175781 160.902344 C 205.1875 159.53125 205.894531 158.332031 206.957031 157.628906 "/>
</g>
<path style=" stroke:none;fill-rule:nonzero;fill:rgb(80.389404%,91.758728%,92.549133%);fill-opacity:1;" d="M 231.328125 230.121094 L 225.535156 227.320312 L 221.519531 225.378906 C 220.804688 225.183594 220.007812 225.234375 219.183594 225.457031 C 217.390625 225.929688 215.449219 227.195312 213.8125 228.492188 C 211.640625 230.207031 210.011719 231.964844 210.011719 231.964844 L 218.621094 242.050781 C 220.789062 241.746094 222.683594 240.800781 224.300781 239.570312 C 228.957031 236.035156 231.328125 230.121094 231.328125 230.121094 Z M 168.800781 192.140625 L 168.980469 192.242188 L 169.378906 192.472656 C 169.378906 192.472656 169.472656 192.445312 169.628906 192.378906 C 169.964844 192.238281 170.605469 191.921875 171.34375 191.289062 C 172.796875 190.058594 174.628906 187.640625 175.300781 183.050781 L 174.726562 182.554688 L 174.40625 182.277344 L 171.542969 179.800781 L 164.761719 173.941406 C 164.761719 173.941406 158.011719 176.898438 156.476562 185.054688 L 161.660156 188.035156 L 165.601562 190.300781 Z M 208.363281 208.585938 C 208.445312 208.566406 208.53125 208.550781 208.621094 208.539062 L 207.941406 207.996094 L 199.871094 201.542969 L 199.4375 201.195312 L 190.371094 193.945312 L 189.742188 193.441406 C 189.167969 196.929688 187.917969 201.894531 185.210938 207.003906 L 188.40625 210.085938 L 196.847656 218.234375 L 197.933594 216.863281 C 201.507812 212.253906 205.246094 209.296875 208.363281 208.585938 Z M 200.054688 197.542969 C 200.109375 197.445312 200.222656 197.394531 200.332031 197.429688 C 200.457031 197.46875 200.527344 197.601562 200.484375 197.726562 C 200.484375 197.730469 200.484375 197.734375 200.480469 197.742188 C 200.742188 197.824219 200.992188 197.820312 201.21875 197.710938 C 203.238281 196.738281 206.394531 190.261719 208.441406 185.625 C 208.488281 184.410156 208.542969 183.179688 208.597656 181.941406 C 203.015625 183.535156 195.097656 182.023438 192.132812 181.351562 C 192.101562 181.59375 192.0625 181.863281 192.019531 182.152344 C 193.367188 185.769531 197.292969 195.804688 200.054688 197.542969 Z M 223.089844 142.082031 C 223.246094 141.917969 223.402344 141.753906 223.5625 141.585938 C 230.492188 147.828125 230.824219 152.640625 230.605469 154.535156 C 231.207031 154.726562 232.089844 155.199219 232.480469 156.371094 C 233.523438 159.496094 232.867188 163.023438 232.867188 163.023438 C 230.648438 164.804688 226.984375 162.726562 226.984375 162.726562 C 226.984375 162.726562 227.621094 160.992188 227.925781 158.488281 C 228.308594 155.324219 229.277344 154.730469 229.277344 154.730469 L 229.457031 154.652344 C 230.019531 149.414062 226.414062 144.984375 223.089844 142.082031 "/>
<g clip-path="url(#clip3)" clip-rule="nonzero">
<path style=" stroke:none;fill-rule:nonzero;fill:rgb(18.818665%,28.239441%,31.369019%);fill-opacity:1;" d="M 198.09375 163.964844 C 198.003906 164.058594 198.007812 164.207031 198.101562 164.300781 C 198.140625 164.335938 199.046875 165.207031 200.300781 165.207031 C 200.355469 165.207031 200.40625 165.203125 200.460938 165.199219 C 201.335938 165.148438 202.144531 164.675781 202.863281 163.789062 C 202.945312 163.683594 202.929688 163.535156 202.828125 163.453125 C 202.730469 163.371094 202.578125 163.386719 202.496094 163.488281 C 201.863281 164.265625 201.171875 164.683594 200.4375 164.726562 C 199.320312 164.796875 198.441406 163.96875 198.429688 163.960938 C 198.339844 163.871094 198.1875 163.871094 198.09375 163.964844 Z M 257.9375 262.507812 C 262.585938 255.980469 263.960938 244.320312 262.066406 235.308594 C 259.695312 224.078125 248.925781 199.953125 241.464844 189.667969 C 234.007812 179.378906 223.949219 179.027344 223.949219 179.027344 C 220.167969 183.34375 222.136719 203.378906 223.296875 212.734375 C 223.480469 212.886719 223.660156 213.039062 223.832031 213.199219 C 224.304688 213.644531 225.054688 214.371094 226.003906 215.296875 L 225.132812 207 C 225.117188 206.867188 225.214844 206.753906 225.34375 206.738281 C 225.46875 206.722656 225.589844 206.816406 225.605469 206.949219 L 226.503906 215.53125 C 226.511719 215.605469 226.484375 215.671875 226.4375 215.722656 C 233.527344 222.679688 249.988281 239.214844 249.988281 239.214844 L 252.035156 241.011719 C 254.34375 241.074219 257.890625 242.183594 258.75 248.199219 C 259.132812 250.898438 258.863281 253.582031 258.292969 256.03125 C 258.167969 256.460938 255.628906 264.980469 246.597656 270.28125 C 246.601562 270.28125 249.953125 270.121094 254.886719 265.648438 C 256.015625 264.835938 257.023438 263.785156 257.914062 262.542969 C 257.921875 262.53125 257.929688 262.523438 257.9375 262.515625 Z M 168.800781 192.140625 C 168.808594 192.144531 168.871094 192.191406 168.980469 192.242188 Z M 171.34375 191.289062 C 170.605469 191.921875 169.964844 192.238281 169.628906 192.378906 C 170.089844 192.367188 170.699219 192.132812 171.34375 191.289062 Z M 174.40625 182.277344 L 174.726562 182.554688 C 174.617188 182.445312 174.511719 182.355469 174.40625 182.277344 Z M 142.742188 259.078125 C 142.742188 259.078125 144.625 247.921875 152.015625 240.023438 C 150.339844 236.078125 150.976562 229.117188 153.988281 224.640625 C 153.988281 224.640625 164.464844 206.015625 165.085938 203.886719 C 165.707031 201.757812 164.011719 192.101562 164.722656 189.796875 L 165.601562 190.300781 L 161.660156 188.035156 C 155.554688 192.824219 149.257812 199.203125 145.703125 205.039062 C 144.316406 207.316406 143.023438 209.835938 141.855469 212.453125 C 141.421875 213.421875 132.066406 235.011719 142.742188 259.078125 Z M 185.003906 161.398438 C 185 161.398438 184.671875 161.445312 184.539062 161.269531 C 184.46875 161.175781 184.355469 160.855469 184.800781 159.960938 C 185.132812 159.292969 185.175781 158.703125 184.933594 158.207031 C 184.53125 157.371094 183.472656 157.140625 183.425781 157.132812 C 183.296875 157.105469 183.171875 157.1875 183.144531 157.316406 C 183.117188 157.445312 183.199219 157.570312 183.328125 157.597656 C 183.335938 157.597656 184.207031 157.792969 184.507812 158.414062 C 184.683594 158.773438 184.636719 159.222656 184.375 159.75 C 183.957031 160.59375 183.886719 161.183594 184.160156 161.554688 C 184.367188 161.832031 184.703125 161.878906 184.90625 161.878906 C 185.007812 161.878906 185.074219 161.867188 185.082031 161.867188 C 185.210938 161.847656 185.296875 161.722656 185.277344 161.59375 C 185.253906 161.464844 185.132812 161.378906 185.003906 161.398438 Z M 192.402344 157.960938 C 192.742188 157.964844 193.054688 157.730469 193.269531 157.351562 C 193.460938 157.019531 193.582031 156.578125 193.585938 156.089844 C 193.597656 155.289062 193.292969 154.605469 192.859375 154.328125 C 193.113281 154.25 193.304688 154.230469 193.308594 154.226562 C 193.441406 154.214844 193.535156 154.097656 193.523438 153.96875 C 193.511719 153.839844 193.386719 153.742188 193.265625 153.753906 C 193.210938 153.761719 191.980469 153.886719 191.378906 154.800781 C 191.316406 154.898438 191.339844 155.027344 191.425781 155.105469 C 191.316406 155.386719 191.253906 155.714844 191.25 156.066406 C 191.246094 156.398438 191.296875 156.710938 191.386719 156.980469 C 191.582031 157.5625 191.960938 157.957031 192.402344 157.960938 Z M 216.328125 157.972656 C 215.960938 158.390625 215.851562 158.972656 215.996094 159.699219 C 216.191406 160.683594 215.996094 160.960938 215.902344 161.035156 C 215.734375 161.167969 215.425781 161.039062 215.425781 161.039062 C 215.304688 160.980469 215.164062 161.035156 215.109375 161.152344 C 215.054688 161.273438 215.105469 161.414062 215.226562 161.46875 C 215.238281 161.472656 215.449219 161.570312 215.703125 161.570312 C 215.863281 161.570312 216.039062 161.527344 216.199219 161.40625 C 216.558594 161.121094 216.644531 160.535156 216.460938 159.609375 C 216.347656 159.03125 216.421875 158.585938 216.683594 158.285156 C 217.136719 157.761719 218.03125 157.804688 218.039062 157.804688 C 218.183594 157.816406 218.28125 157.710938 218.289062 157.582031 C 218.296875 157.449219 218.195312 157.339844 218.066406 157.332031 C 218.019531 157.328125 216.9375 157.273438 216.328125 157.972656 Z M 208.59375 157.015625 C 208.683594 156.75 208.742188 156.449219 208.742188 156.125 C 208.753906 155.347656 208.457031 154.679688 208.035156 154.40625 C 208.152344 154.378906 208.234375 154.371094 208.234375 154.371094 C 208.367188 154.359375 208.460938 154.246094 208.453125 154.117188 C 208.441406 153.984375 208.328125 153.890625 208.195312 153.898438 C 208.148438 153.902344 206.964844 154.007812 206.589844 154.992188 C 206.5625 155.070312 206.578125 155.148438 206.621094 155.207031 C 206.527344 155.472656 206.46875 155.777344 206.464844 156.105469 C 206.460938 156.738281 206.65625 157.296875 206.957031 157.628906 C 207.136719 157.828125 207.351562 157.945312 207.585938 157.945312 C 208.015625 157.953125 208.390625 157.574219 208.59375 157.015625 Z M 197.863281 153.738281 C 197.757812 153.660156 197.609375 153.683594 197.53125 153.789062 C 197.453125 153.894531 197.476562 154.042969 197.582031 154.121094 C 197.59375 154.128906 198.730469 154.980469 198.820312 156.058594 C 198.863281 156.570312 198.65625 157.0625 198.207031 157.527344 C 197.171875 158.585938 197.21875 159.402344 197.445312 159.898438 C 197.75 160.570312 198.523438 160.957031 199.125 160.957031 C 199.148438 160.957031 199.167969 160.957031 199.191406 160.957031 C 199.324219 160.949219 199.421875 160.835938 199.417969 160.707031 C 199.410156 160.574219 199.308594 160.472656 199.167969 160.480469 C 198.796875 160.5 198.117188 160.238281 197.878906 159.699219 C 197.644531 159.183594 197.875 158.546875 198.546875 157.855469 C 199.097656 157.289062 199.347656 156.671875 199.292969 156.015625 C 199.183594 154.722656 197.917969 153.777344 197.863281 153.738281 Z M 201.21875 197.710938 C 200.992188 197.820312 200.742188 197.824219 200.480469 197.742188 C 200.441406 197.871094 200.171875 198.878906 199.871094 201.542969 L 207.941406 207.996094 C 207.96875 201.128906 208.121094 193.675781 208.441406 185.625 C 206.394531 190.261719 203.238281 196.738281 201.21875 197.710938 Z M 199.4375 201.195312 C 199.75 198.523438 200.027344 197.613281 200.035156 197.582031 C 200.039062 197.566406 200.050781 197.554688 200.054688 197.542969 C 197.292969 195.804688 193.367188 185.769531 192.019531 182.152344 C 191.664062 184.632812 191.0625 188.773438 190.371094 193.945312 Z M 198.507812 229.417969 C 197.121094 228.546875 196.847656 226.632812 196.792969 225.96875 C 196.789062 225.96875 196.785156 225.96875 196.78125 225.96875 C 196.726562 225.96875 196.667969 225.953125 196.625 225.910156 C 196.554688 225.851562 196.535156 225.761719 196.550781 225.679688 C 193.332031 224.867188 194.203125 221.59375 194.203125 221.59375 L 196.847656 218.234375 L 188.40625 210.085938 C 187.144531 221.625 186.070312 234.609375 186.070312 245.597656 C 186.070312 256.949219 189.265625 271.375 189.265625 271.375 C 189.265625 271.375 188.941406 271.753906 188.414062 272.347656 C 192.53125 272.585938 196.472656 272.519531 200.023438 272.300781 C 199.027344 253.984375 198.605469 240.019531 198.507812 229.417969 Z M 210.515625 270.398438 C 209.824219 265.765625 209.582031 254.121094 209.511719 249.210938 C 209.105469 244.675781 208.730469 239.371094 208.445312 233.28125 C 206.136719 233.886719 205.128906 232.660156 204.820312 232.148438 C 204.785156 232.167969 204.75 232.179688 204.710938 232.179688 C 204.660156 232.179688 204.609375 232.160156 204.566406 232.128906 C 204.523438 232.09375 204.5 232.054688 204.488281 232.003906 C 202.261719 232.601562 201.148438 230.6875 200.839844 230.027344 C 200.808594 230.039062 200.777344 230.050781 200.746094 230.050781 C 200.695312 230.050781 200.640625 230.035156 200.597656 230 C 200.546875 229.957031 200.515625 229.898438 200.511719 229.835938 C 199.910156 229.886719 199.40625 229.8125 198.984375 229.652344 C 199.085938 240.210938 199.507812 254.09375 200.496094 272.273438 C 204.789062 271.996094 208.46875 271.5 211.132812 271.0625 C 210.722656 270.65625 210.515625 270.398438 210.515625 270.398438 Z M 167.957031 242.132812 C 167.957031 242.125 167.957031 242.121094 167.957031 242.113281 C 167.953125 242.128906 167.949219 242.140625 167.941406 242.15625 Z M 162.78125 252.484375 C 161.40625 254.835938 159.136719 257.390625 156.613281 259.546875 L 156.476562 261.324219 C 158.597656 263.132812 160.894531 264.664062 163.304688 265.960938 L 166.242188 246.117188 C 165.300781 248.046875 164.144531 250.15625 162.78125 252.484375 Z M 214.789062 133.132812 C 214.753906 134.335938 214.53125 142.484375 214.050781 143.84375 C 214.007812 143.96875 214.074219 144.101562 214.199219 144.144531 C 214.222656 144.15625 214.25 144.160156 214.277344 144.160156 C 214.375 144.160156 214.464844 144.097656 214.5 144 C 215.039062 142.46875 215.257812 133.382812 215.265625 132.996094 C 215.265625 132.902344 215.21875 132.820312 215.136719 132.777344 C 197.765625 123.785156 185.601562 133.761719 185.476562 133.863281 C 185.378906 133.949219 185.367188 134.097656 185.449219 134.199219 C 185.535156 134.300781 185.683594 134.3125 185.785156 134.226562 C 185.902344 134.128906 197.765625 124.402344 214.789062 133.132812 Z M 200.425781 146.929688 L 213.265625 144.300781 C 213.394531 144.277344 213.476562 144.152344 213.449219 144.023438 C 213.421875 143.894531 213.300781 143.8125 213.167969 143.835938 L 200.355469 146.460938 C 199.292969 146.558594 191.582031 145.179688 187.652344 144.433594 C 187.523438 144.40625 187.398438 144.492188 187.375 144.621094 C 187.351562 144.75 187.433594 144.875 187.5625 144.898438 C 188.015625 144.984375 198.324219 146.933594 200.261719 146.933594 C 200.328125 146.933594 200.382812 146.933594 200.425781 146.929688 Z M 184.136719 155.777344 C 182.917969 152.800781 183.175781 150.304688 183.914062 148.378906 C 182.425781 147.769531 180.835938 147.082031 179.289062 146.363281 C 181.828125 147.488281 183.914062 148.378906 183.914062 148.378906 C 184.289062 147.171875 186.601562 144.429688 186.601562 144.429688 L 185.246094 134.324219 C 182.601562 128.917969 189.164062 124.292969 189.164062 124.292969 C 193.839844 121.179688 197.96875 118.945312 199.523438 119.28125 C 203.621094 120.171875 229.816406 132.367188 229.90625 133.703125 C 229.953125 134.339844 227.019531 137.949219 223.5625 141.585938 C 223.402344 141.753906 223.246094 141.917969 223.089844 142.082031 C 221.019531 144.226562 218.808594 146.335938 216.957031 147.796875 C 218.171875 150.347656 217.5625 153.589844 216.859375 155.8125 C 216.550781 155.714844 216.230469 155.644531 215.894531 155.621094 C 215.632812 155.605469 215.378906 155.613281 215.132812 155.644531 L 214.507812 157.960938 L 213.210938 158.59375 L 212.878906 156.699219 C 211.511719 156.023438 211.605469 153.28125 211.605469 153.28125 C 205.757812 154.527344 200.378906 149.007812 200.378906 149.007812 C 200.378906 150.878906 203.101562 151.945312 203.101562 151.945312 C 199.554688 152.433594 195.84375 148.855469 193.867188 146.5625 C 193.40625 147.742188 192.265625 150.210938 190.300781 151.722656 C 190.300781 151.722656 190.496094 154.136719 188.269531 154.605469 L 186.441406 157.566406 L 185.246094 156.699219 C 185.246094 156.699219 185.183594 156.285156 185.121094 155.617188 C 184.78125 155.625 184.453125 155.683594 184.136719 155.777344 Z M 228.34375 243.488281 L 235.40625 250.335938 C 233.769531 252.421875 232.492188 254.683594 231.585938 256.933594 C 230.3125 252.628906 229.242188 248.101562 228.34375 243.488281 "/>
</g>
<g clip-path="url(#clip4)" clip-rule="nonzero">
<path style=" stroke:none;fill-rule:nonzero;fill:rgb(6.269836%,5.879211%,5.099487%);fill-opacity:1;" d="M 213.265625 144.300781 C 213.394531 144.277344 213.476562 144.152344 213.449219 144.023438 C 213.421875 143.894531 213.300781 143.8125 213.167969 143.835938 L 200.355469 146.460938 C 199.292969 146.558594 191.582031 145.179688 187.652344 144.433594 C 187.523438 144.40625 187.398438 144.492188 187.375 144.621094 C 187.351562 144.75 187.433594 144.875 187.5625 144.898438 C 188.015625 144.984375 198.324219 146.933594 200.261719 146.933594 C 200.328125 146.933594 200.382812 146.933594 200.425781 146.929688 Z M 214.789062 133.132812 C 214.753906 134.335938 214.53125 142.484375 214.050781 143.84375 C 214.007812 143.96875 214.074219 144.101562 214.199219 144.144531 C 214.222656 144.15625 214.25 144.160156 214.277344 144.160156 C 214.375 144.160156 214.464844 144.097656 214.5 144 C 215.039062 142.46875 215.257812 133.382812 215.265625 132.996094 C 215.265625 132.902344 215.21875 132.820312 215.136719 132.777344 C 197.765625 123.785156 185.601562 133.761719 185.476562 133.863281 C 185.378906 133.949219 185.367188 134.097656 185.449219 134.199219 C 185.535156 134.300781 185.683594 134.3125 185.785156 134.226562 C 185.902344 134.128906 197.765625 124.402344 214.789062 133.132812 Z M 186.601562 144.429688 L 185.246094 134.324219 C 182.601562 128.917969 189.164062 124.292969 189.164062 124.292969 C 186.207031 125.371094 173.65625 135.828125 171.777344 137.578125 C 169.898438 139.328125 169.199219 140.789062 170.421875 141.972656 C 171.136719 142.667969 175.671875 144.757812 179.289062 146.363281 C 181.828125 147.488281 183.914062 148.378906 183.914062 148.378906 C 184.289062 147.171875 186.601562 144.429688 186.601562 144.429688 Z M 207.199219 173.203125 C 207.199219 173.203125 198.5625 176.214844 192.863281 172.609375 L 192.578125 175.710938 L 192.507812 176.445312 C 192.507812 176.445312 200.613281 178.582031 207.199219 173.203125 Z M 226.269531 215.796875 C 226.277344 215.796875 226.285156 215.796875 226.292969 215.792969 C 226.351562 215.789062 226.398438 215.761719 226.4375 215.722656 C 226.484375 215.671875 226.511719 215.605469 226.503906 215.53125 L 225.605469 206.949219 C 225.589844 206.816406 225.46875 206.722656 225.34375 206.738281 C 225.214844 206.753906 225.117188 206.867188 225.132812 207 L 226.003906 215.296875 L 226.03125 215.582031 C 226.046875 215.703125 226.148438 215.796875 226.269531 215.796875 Z M 225.320312 275.980469 C 225.308594 275.980469 225.300781 275.980469 225.289062 275.980469 C 224.503906 275.910156 218.078125 275.171875 212.230469 269.601562 C 212.230469 269.601562 209.800781 251.476562 209.484375 246.976562 C 209.484375 246.976562 209.488281 247.828125 209.511719 249.210938 C 209.582031 254.121094 209.824219 265.765625 210.515625 270.398438 C 210.515625 270.398438 210.722656 270.65625 211.132812 271.0625 C 212.699219 272.597656 217.300781 276.269531 225.367188 275.988281 C 225.367188 275.988281 225.359375 275.984375 225.34375 275.984375 C 225.335938 275.984375 225.328125 275.984375 225.320312 275.980469 Z M 165.878906 267.945312 L 168.167969 241.726562 L 167.957031 242.132812 L 167.941406 242.15625 C 167.949219 242.140625 167.953125 242.128906 167.957031 242.113281 C 168.003906 241.636719 168.050781 241.15625 168.101562 240.675781 C 163.8125 244.515625 156.519531 244.964844 153.367188 242.050781 C 152.816406 241.539062 152.367188 240.84375 152.015625 240.023438 C 144.625 247.921875 142.742188 259.078125 142.742188 259.078125 C 132.066406 235.011719 141.421875 213.421875 141.855469 212.453125 C 141.863281 212.433594 141.871094 212.417969 141.871094 212.417969 C 141.871094 212.417969 134.136719 227.890625 134.019531 240.777344 C 133.917969 251.804688 141.535156 260.832031 143.742188 263.210938 C 143.917969 263.453125 144.117188 263.65625 144.335938 263.832031 C 146.914062 265.882812 152.164062 263.34375 156.613281 259.546875 C 159.136719 257.390625 161.40625 254.835938 162.78125 252.484375 C 164.144531 250.15625 165.300781 248.046875 166.242188 246.117188 L 163.304688 265.960938 L 162.902344 268.683594 C 162.902344 268.683594 168.277344 278.558594 182.519531 278.234375 C 182.519531 278.234375 171.820312 276.667969 165.878906 267.945312 Z M 210.496094 224.960938 C 210.574219 224.859375 210.558594 224.710938 210.453125 224.628906 C 210.351562 224.550781 210.203125 224.566406 210.121094 224.667969 L 204.523438 231.792969 C 204.476562 231.855469 204.46875 231.933594 204.488281 232.003906 C 204.5 232.054688 204.523438 232.09375 204.566406 232.128906 C 204.609375 232.160156 204.660156 232.179688 204.710938 232.179688 C 204.75 232.179688 204.785156 232.167969 204.820312 232.148438 C 204.851562 232.132812 204.878906 232.113281 204.898438 232.085938 Z M 207.300781 221.933594 C 207.382812 221.832031 207.363281 221.679688 207.261719 221.601562 C 207.160156 221.519531 207.007812 221.535156 206.925781 221.636719 L 200.558594 229.664062 C 200.519531 229.714844 200.503906 229.777344 200.511719 229.835938 C 200.515625 229.898438 200.546875 229.957031 200.597656 230 C 200.640625 230.035156 200.695312 230.050781 200.746094 230.050781 C 200.777344 230.050781 200.808594 230.039062 200.839844 230.027344 C 200.875 230.011719 200.90625 229.992188 200.933594 229.960938 Z M 203.917969 217.996094 C 204.003906 217.898438 203.996094 217.746094 203.898438 217.660156 C 203.796875 217.574219 203.648438 217.585938 203.5625 217.683594 L 196.601562 225.578125 C 196.574219 225.605469 196.5625 225.640625 196.550781 225.679688 C 196.535156 225.761719 196.554688 225.851562 196.625 225.910156 C 196.667969 225.953125 196.726562 225.96875 196.78125 225.96875 C 196.785156 225.96875 196.789062 225.96875 196.792969 225.96875 C 196.855469 225.964844 196.914062 225.9375 196.957031 225.890625 Z M 187.492188 184.058594 C 187.363281 184.089844 187.285156 184.21875 187.316406 184.34375 C 187.320312 184.363281 187.738281 186.0625 187.316406 187.929688 C 187.289062 188.058594 187.367188 188.183594 187.496094 188.214844 C 187.515625 188.21875 187.53125 188.21875 187.546875 188.21875 C 187.65625 188.21875 187.753906 188.144531 187.78125 188.035156 C 188.199219 186.175781 187.847656 184.523438 187.785156 184.261719 C 187.78125 184.246094 187.78125 184.234375 187.777344 184.230469 C 187.746094 184.101562 187.617188 184.027344 187.492188 184.058594 Z M 183.917969 180.871094 C 183.90625 180.875 183.898438 180.886719 183.886719 180.890625 C 183.785156 180.945312 183.734375 181.0625 183.773438 181.175781 C 183.78125 181.195312 184.570312 183.503906 183.824219 185.5 C 183.78125 185.621094 183.84375 185.757812 183.964844 185.804688 C 183.992188 185.816406 184.019531 185.820312 184.046875 185.820312 C 184.144531 185.820312 184.234375 185.761719 184.269531 185.664062 C 185.039062 183.605469 184.332031 181.34375 184.234375 181.050781 C 184.226562 181.035156 184.222656 181.019531 184.21875 181.015625 C 184.175781 180.894531 184.042969 180.828125 183.917969 180.871094 Z M 178.921875 179.464844 C 178.9375 179.484375 180.503906 181.632812 179.746094 184.582031 C 179.710938 184.710938 179.789062 184.839844 179.917969 184.871094 C 179.9375 184.875 179.957031 184.878906 179.976562 184.878906 C 180.082031 184.878906 180.179688 184.808594 180.207031 184.699219 C 180.964844 181.753906 179.605469 179.613281 179.34375 179.238281 C 179.324219 179.210938 179.308594 179.1875 179.304688 179.179688 C 179.226562 179.074219 179.078125 179.054688 178.972656 179.132812 C 178.953125 179.144531 178.941406 179.164062 178.925781 179.183594 C 178.867188 179.265625 178.859375 179.378906 178.921875 179.464844 Z M 198.507812 229.417969 C 198.605469 240.019531 199.027344 253.984375 200.023438 272.300781 C 200.03125 272.429688 200.136719 272.527344 200.261719 272.527344 C 200.265625 272.527344 200.269531 272.527344 200.273438 272.523438 C 200.402344 272.519531 200.503906 272.40625 200.496094 272.273438 C 199.507812 254.09375 199.085938 240.210938 198.984375 229.652344 C 198.8125 229.585938 198.65625 229.507812 198.507812 229.417969 Z M 200.484375 197.726562 C 200.527344 197.601562 200.457031 197.46875 200.332031 197.429688 C 200.222656 197.394531 200.109375 197.445312 200.054688 197.542969 C 200.050781 197.554688 200.039062 197.566406 200.035156 197.582031 C 200.027344 197.613281 199.75 198.523438 199.4375 201.195312 L 199.871094 201.542969 C 200.171875 198.878906 200.441406 197.871094 200.480469 197.742188 C 200.484375 197.734375 200.484375 197.730469 200.484375 197.726562 Z M 246.597656 270.28125 C 241.054688 272.699219 234.199219 274.328125 231.328125 269.957031 C 231.035156 269.507812 230.789062 269.007812 230.589844 268.46875 C 232.375 263.960938 232.472656 259.789062 232.472656 259.789062 C 232.164062 258.847656 231.871094 257.894531 231.585938 256.933594 C 232.492188 254.683594 233.769531 252.421875 235.40625 250.335938 L 239.605469 254.40625 C 253.253906 255.796875 253.21875 242.050781 253.21875 242.050781 L 252.035156 241.011719 C 254.34375 241.074219 257.890625 242.183594 258.75 248.199219 C 259.132812 250.898438 258.863281 253.582031 258.292969 256.03125 C 258.167969 256.460938 255.628906 264.980469 246.597656 270.28125 "/>
</g>
</g>
</svg>
