<?xml version="1.0" encoding="UTF-8"?>
<svg xmlns="http://www.w3.org/2000/svg" xmlns:xlink="http://www.w3.org/1999/xlink" width="397.5pt" height="397.500002pt" viewBox="0 0 397.5 397.500002" version="1.2">
<defs>
<clipPath id="clip1">
  <path d="M 213 213 L 234.664062 213 L 234.664062 235 L 213 235 Z M 213 213 "/>
</clipPath>
<clipPath id="clip2">
  <path d="M 162.21875 161.617188 L 225 161.617188 L 225 225 L 162.21875 225 Z M 162.21875 161.617188 "/>
</clipPath>
</defs>
<g id="surface1">
<g clip-path="url(#clip1)" clip-rule="nonzero">
<path style=" stroke:none;fill-rule:nonzero;fill:rgb(95.689392%,51.759338%,9.01947%);fill-opacity:1;" d="M 217.453125 213.453125 L 232.542969 225.074219 C 233.9375 226.160156 234.664062 227.785156 234.664062 229.410156 C 234.664062 230.804688 234.144531 232.191406 233.078125 233.273438 C 230.757812 235.605469 226.945312 235.355469 224.945312 232.734375 L 213.417969 217.519531 L 217.453125 213.453125 "/>
</g>
<g clip-path="url(#clip2)" clip-rule="nonzero">
<path style=" stroke:none;fill-rule:nonzero;fill:rgb(76.078796%,78.42865%,82.749939%);fill-opacity:1;" d="M 224.671875 193.320312 C 224.671875 210.703125 210.6875 224.800781 193.445312 224.800781 C 176.199219 224.800781 162.21875 210.703125 162.21875 193.320312 C 162.21875 175.9375 176.199219 161.839844 193.445312 161.839844 C 210.6875 161.839844 224.671875 175.9375 224.671875 193.320312 "/>
</g>
<path style=" stroke:none;fill-rule:nonzero;fill:rgb(37.649536%,79.60968%,91.369629%);fill-opacity:1;" d="M 219.675781 193.320312 C 219.675781 207.925781 207.933594 219.761719 193.445312 219.761719 C 178.960938 219.761719 167.214844 207.925781 167.214844 193.320312 C 167.214844 178.71875 178.960938 166.878906 193.445312 166.878906 C 207.933594 166.878906 219.675781 178.71875 219.675781 193.320312 "/>
<path style=" stroke:none;fill-rule:nonzero;fill:rgb(29.019165%,65.098572%,87.449646%);fill-opacity:1;" d="M 207.273438 204.652344 L 179.617188 204.652344 C 177.75 204.652344 176.59375 202.523438 177.554688 200.855469 L 191.382812 176.910156 C 192.3125 175.285156 194.578125 175.285156 195.511719 176.910156 L 209.335938 200.855469 C 210.300781 202.523438 209.144531 204.652344 207.273438 204.652344 "/>
<path style=" stroke:none;fill-rule:nonzero;fill:rgb(31.369019%,74.508667%,92.549133%);fill-opacity:1;" d="M 193.445312 221.023438 C 178.292969 221.023438 165.964844 208.597656 165.964844 193.320312 C 165.964844 180.523438 174.578125 169.457031 186.90625 166.410156 C 187.578125 166.242188 188.253906 166.65625 188.421875 167.335938 C 188.582031 168.007812 188.171875 168.691406 187.503906 168.855469 C 176.296875 171.625 168.464844 181.683594 168.464844 193.320312 C 168.464844 207.207031 179.671875 218.503906 193.445312 218.503906 C 207.21875 218.503906 218.429688 207.207031 218.429688 193.320312 C 218.429688 179.433594 207.21875 168.136719 193.445312 168.136719 C 192.757812 168.136719 192.195312 167.570312 192.195312 166.878906 C 192.195312 166.183594 192.757812 165.617188 193.445312 165.617188 C 208.601562 165.617188 220.925781 178.042969 220.925781 193.320312 C 220.925781 208.597656 208.601562 221.023438 193.445312 221.023438 "/>
<path style=" stroke:none;fill-rule:nonzero;fill:rgb(37.649536%,79.60968%,91.369629%);fill-opacity:1;" d="M 193.445312 194.578125 C 192.757812 194.578125 192.195312 194.015625 192.195312 193.320312 L 192.195312 184.507812 C 192.195312 183.8125 192.757812 183.246094 193.445312 183.246094 C 194.132812 183.246094 194.695312 183.8125 194.695312 184.507812 L 194.695312 193.320312 C 194.695312 194.015625 194.132812 194.578125 193.445312 194.578125 "/>
<path style=" stroke:none;fill-rule:nonzero;fill:rgb(37.649536%,79.60968%,91.369629%);fill-opacity:1;" d="M 193.445312 200.875 C 192.757812 200.875 192.195312 200.308594 192.195312 199.617188 L 192.195312 198.355469 C 192.195312 197.664062 192.757812 197.097656 193.445312 197.097656 C 194.132812 197.097656 194.695312 197.664062 194.695312 198.355469 L 194.695312 199.617188 C 194.695312 200.308594 194.132812 200.875 193.445312 200.875 "/>
<path style=" stroke:none;fill-rule:nonzero;fill:rgb(83.918762%,42.349243%,10.5896%);fill-opacity:1;" d="M 229.667969 231.09375 C 229.347656 231.09375 229.03125 230.972656 228.785156 230.726562 L 227.539062 229.46875 C 227.050781 228.976562 227.050781 228.179688 227.539062 227.6875 C 228.023438 227.195312 228.816406 227.195312 229.304688 227.6875 L 230.550781 228.945312 C 231.039062 229.4375 231.039062 230.234375 230.550781 230.726562 C 230.308594 230.972656 229.992188 231.09375 229.667969 231.09375 "/>
</g>
</svg>
