<?xml version="1.0" encoding="UTF-8"?>
<svg xmlns="http://www.w3.org/2000/svg" xmlns:xlink="http://www.w3.org/1999/xlink" width="397.5pt" height="397.500002pt" viewBox="0 0 397.5 397.500002" version="1.2">
<defs>
<clipPath id="clip1">
  <path d="M 162.21875 180.164062 L 234.664062 180.164062 L 234.664062 217.664062 L 162.21875 217.664062 Z M 162.21875 180.164062 "/>
</clipPath>
<clipPath id="clip2">
  <path d="M 166 184 L 231 184 L 231 217.664062 L 166 217.664062 Z M 166 184 "/>
</clipPath>
<clipPath id="clip3">
  <path d="M 168 186 L 229 186 L 229 217.664062 L 168 217.664062 Z M 168 186 "/>
</clipPath>
<clipPath id="clip4">
  <path d="M 168 186 L 198 186 L 198 217.664062 L 168 217.664062 Z M 168 186 "/>
</clipPath>
<clipPath id="clip5">
  <path d="M 168 198 L 198 198 L 198 217.664062 L 168 217.664062 Z M 168 198 "/>
</clipPath>
<clipPath id="clip6">
  <path d="M 199 198 L 229 198 L 229 217.664062 L 199 217.664062 Z M 199 198 "/>
</clipPath>
<clipPath id="clip7">
  <path d="M 186 205 L 211 205 L 211 217.664062 L 186 217.664062 Z M 186 205 "/>
</clipPath>
<clipPath id="clip8">
  <path d="M 188 207 L 209 207 L 209 217.664062 L 188 217.664062 Z M 188 207 "/>
</clipPath>
<clipPath id="clip9">
  <path d="M 195 189 L 204 189 L 204 217.664062 L 195 217.664062 Z M 195 189 "/>
</clipPath>
<clipPath id="clip10">
  <path d="M 195 189 L 200 189 L 200 217.664062 L 195 217.664062 Z M 195 189 "/>
</clipPath>
</defs>
<g id="surface1">
<g clip-path="url(#clip1)" clip-rule="nonzero">
<path style=" stroke:none;fill-rule:nonzero;fill:rgb(82.749939%,82.348633%,82.348633%);fill-opacity:1;" d="M 234.636719 217.976562 C 234.640625 217.769531 234.652344 217.5625 234.652344 217.351562 C 234.652344 196.816406 218.441406 180.171875 198.441406 180.171875 C 178.445312 180.171875 162.234375 196.816406 162.234375 217.351562 C 162.234375 217.5625 162.246094 217.769531 162.25 217.976562 L 234.636719 217.976562 "/>
</g>
<g clip-path="url(#clip2)" clip-rule="nonzero">
<path style=" stroke:none;fill-rule:nonzero;fill:rgb(72.549438%,71.759033%,72.158813%);fill-opacity:1;" d="M 230.71875 217.976562 C 230.722656 217.792969 230.734375 217.609375 230.734375 217.421875 C 230.734375 199.105469 216.277344 184.261719 198.441406 184.261719 C 180.609375 184.261719 166.152344 199.105469 166.152344 217.421875 C 166.152344 217.609375 166.164062 217.792969 166.164062 217.976562 L 230.71875 217.976562 "/>
</g>
<g clip-path="url(#clip3)" clip-rule="nonzero">
<path style=" stroke:none;fill-rule:nonzero;fill:rgb(94.509888%,31.759644%,10.5896%);fill-opacity:1;" d="M 228.496094 217.953125 C 228.496094 217.777344 228.507812 217.609375 228.507812 217.433594 C 228.492188 200.390625 215.027344 186.582031 198.429688 186.597656 C 181.832031 186.609375 168.386719 200.441406 168.402344 217.484375 C 168.402344 217.65625 168.410156 217.828125 168.414062 218.003906 L 228.496094 217.953125 "/>
</g>
<g clip-path="url(#clip4)" clip-rule="nonzero">
<path style=" stroke:none;fill-rule:nonzero;fill:rgb(50.19989%,79.998779%,15.689087%);fill-opacity:1;" d="M 197.792969 186.613281 C 181.488281 186.976562 168.386719 200.660156 168.402344 217.484375 C 168.402344 217.65625 168.410156 217.828125 168.414062 218.003906 L 197.792969 217.976562 L 197.792969 186.613281 "/>
</g>
<g clip-path="url(#clip5)" clip-rule="nonzero">
<path style=" stroke:none;fill-rule:nonzero;fill:rgb(87.059021%,90.979004%,3.919983%);fill-opacity:1;" d="M 175.085938 198.058594 C 170.898438 203.363281 168.394531 210.125 168.402344 217.484375 C 168.402344 217.65625 168.410156 217.828125 168.414062 218.003906 L 197.792969 217.976562 C 197.792969 217.976562 187.878906 209.632812 175.085938 198.058594 "/>
</g>
<g clip-path="url(#clip6)" clip-rule="nonzero">
<path style=" stroke:none;fill-rule:nonzero;fill:rgb(83.918762%,19.219971%,14.118958%);fill-opacity:1;" d="M 221.824219 198.058594 C 226.007812 203.363281 228.511719 210.125 228.507812 217.484375 C 228.507812 217.65625 228.496094 217.828125 228.492188 218.003906 L 199.117188 217.976562 C 199.117188 217.976562 209.03125 209.632812 221.824219 198.058594 "/>
</g>
<g clip-path="url(#clip7)" clip-rule="nonzero">
<path style=" stroke:none;fill-rule:nonzero;fill:rgb(67.059326%,66.668701%,66.668701%);fill-opacity:1;" d="M 210.28125 217.96875 C 210.28125 217.898438 210.285156 217.832031 210.285156 217.761719 C 210.277344 211.054688 204.976562 205.621094 198.445312 205.625 C 191.910156 205.632812 186.621094 211.074219 186.625 217.785156 C 186.625 217.851562 186.628906 217.917969 186.628906 217.988281 L 210.28125 217.96875 "/>
</g>
<g clip-path="url(#clip8)" clip-rule="nonzero">
<path style=" stroke:none;fill-rule:nonzero;fill:rgb(82.749939%,82.348633%,82.348633%);fill-opacity:1;" d="M 208.28125 217.96875 C 208.28125 217.914062 208.285156 217.855469 208.285156 217.800781 C 208.28125 212.222656 203.878906 207.707031 198.445312 207.710938 C 193.015625 207.714844 188.617188 212.238281 188.621094 217.816406 C 188.621094 217.875 188.625 217.929688 188.628906 217.984375 L 208.28125 217.96875 "/>
</g>
<g clip-path="url(#clip9)" clip-rule="nonzero">
<path style=" stroke:none;fill-rule:nonzero;fill:rgb(16.079712%,14.118958%,17.248535%);fill-opacity:1;" d="M 203.449219 213.164062 C 203.449219 215.824219 201.570312 217.976562 199.253906 217.976562 C 196.9375 217.976562 195.0625 215.824219 195.0625 213.164062 C 195.0625 210.507812 199.253906 189.683594 199.253906 189.683594 C 199.253906 189.683594 203.449219 210.507812 203.449219 213.164062 "/>
</g>
<g clip-path="url(#clip10)" clip-rule="nonzero">
<path style=" stroke:none;fill-rule:nonzero;fill:rgb(21.179199%,19.219971%,23.919678%);fill-opacity:1;" d="M 199.308594 189.949219 C 199.273438 189.777344 199.253906 189.683594 199.253906 189.683594 C 199.253906 189.683594 195.0625 210.507812 195.0625 213.164062 C 195.0625 215.824219 196.9375 217.976562 199.253906 217.976562 L 199.308594 217.976562 L 199.308594 189.949219 "/>
</g>
<path style=" stroke:none;fill-rule:nonzero;fill:rgb(26.269531%,23.919678%,30.198669%);fill-opacity:1;" d="M 201.285156 213.589844 C 201.285156 214.742188 200.375 215.675781 199.253906 215.675781 C 198.132812 215.675781 197.226562 214.742188 197.226562 213.589844 C 197.226562 212.441406 198.132812 211.507812 199.253906 211.507812 C 200.375 211.507812 201.285156 212.441406 201.285156 213.589844 "/>
</g>
</svg>
