<?xml version="1.0" encoding="UTF-8"?>
<svg xmlns="http://www.w3.org/2000/svg" xmlns:xlink="http://www.w3.org/1999/xlink" width="397.5pt" height="397.500002pt" viewBox="0 0 397.5 397.500002" version="1.2">
<defs>
<clipPath id="clip1">
  <path d="M 187 162.171875 L 235.625 162.171875 L 235.625 229 L 187 229 Z M 187 162.171875 "/>
</clipPath>
<clipPath id="clip2">
  <path d="M 223 162.171875 L 235.625 162.171875 L 235.625 175 L 223 175 Z M 223 162.171875 "/>
</clipPath>
<clipPath id="clip3">
  <path d="M 162.125 197 L 206 197 L 206 235.671875 L 162.125 235.671875 Z M 162.125 197 "/>
</clipPath>
<clipPath id="clip4">
  <path d="M 162.125 204 L 206 204 L 206 235.671875 L 162.125 235.671875 Z M 162.125 204 "/>
</clipPath>
<clipPath id="clip5">
  <path d="M 223 174 L 235.625 174 L 235.625 178 L 223 178 Z M 223 174 "/>
</clipPath>
</defs>
<g id="surface1">
<g clip-path="url(#clip1)" clip-rule="nonzero">
<path style=" stroke:none;fill-rule:nonzero;fill:rgb(55.288696%,83.529663%,84.709167%);fill-opacity:1;" d="M 235.980469 228.386719 L 187.59375 228.386719 L 187.59375 162.171875 L 223.246094 162.171875 L 235.980469 174.90625 L 235.980469 228.386719 "/>
</g>
<path style=" stroke:none;fill-rule:nonzero;fill:rgb(47.44873%,77.249146%,78.42865%);fill-opacity:1;" d="M 206.691406 212.109375 C 206.691406 205.25 201.925781 199.3125 195.234375 197.824219 L 199.050781 190.1875 L 187.59375 190.1875 L 187.59375 228.386719 L 207.648438 228.386719 L 206.691406 227.113281 L 206.691406 212.109375 "/>
<g clip-path="url(#clip2)" clip-rule="nonzero">
<path style=" stroke:none;fill-rule:nonzero;fill:rgb(91.369629%,25.878906%,25.099182%);fill-opacity:1;" d="M 223.246094 162.171875 L 223.246094 174.90625 L 235.980469 174.90625 Z M 223.246094 162.171875 "/>
</g>
<g clip-path="url(#clip3)" clip-rule="nonzero">
<path style=" stroke:none;fill-rule:nonzero;fill:rgb(97.648621%,70.588684%,15.289307%);fill-opacity:1;" d="M 202.554688 236.027344 L 164.992188 236.027344 C 163.410156 236.027344 162.125 234.742188 162.125 233.160156 C 162.125 232.539062 162.324219 231.9375 162.699219 231.441406 L 165.945312 227.113281 L 165.945312 212.109375 C 165.945312 205.25 170.710938 199.3125 177.40625 197.824219 L 190.140625 197.824219 C 196.835938 199.3125 201.597656 205.25 201.597656 212.109375 L 201.597656 227.113281 L 204.847656 231.441406 C 205.21875 231.9375 205.417969 232.539062 205.417969 233.160156 C 205.417969 234.742188 204.136719 236.027344 202.554688 236.027344 "/>
</g>
<g clip-path="url(#clip4)" clip-rule="nonzero">
<path style=" stroke:none;fill-rule:nonzero;fill:rgb(97.648621%,65.098572%,12.939453%);fill-opacity:1;" d="M 201.597656 227.113281 L 201.597656 212.109375 C 201.597656 209.335938 200.808594 206.71875 199.433594 204.476562 C 189.691406 219.679688 172.882812 227.964844 162.445312 231.859375 C 162.234375 232.261719 162.125 232.703125 162.125 233.160156 C 162.125 234.742188 163.410156 236.027344 164.992188 236.027344 L 202.554688 236.027344 C 204.136719 236.027344 205.417969 234.742188 205.417969 233.160156 C 205.417969 232.539062 205.21875 231.9375 204.847656 231.441406 L 201.597656 227.113281 "/>
</g>
<path style=" stroke:none;fill-rule:nonzero;fill:rgb(95.689392%,66.268921%,5.099487%);fill-opacity:1;" d="M 190.140625 197.824219 L 177.40625 197.824219 L 173.585938 190.1875 L 193.960938 190.1875 L 190.140625 197.824219 "/>
<path style=" stroke:none;fill-rule:nonzero;fill:rgb(91.369629%,25.878906%,25.099182%);fill-opacity:1;" d="M 185.683594 215.652344 L 181.863281 215.652344 C 180.808594 215.652344 179.953125 214.796875 179.953125 213.742188 C 179.953125 212.6875 180.808594 211.832031 181.863281 211.832031 L 188.867188 211.832031 L 188.867188 209.285156 L 185.046875 209.285156 L 185.046875 206.738281 L 182.5 206.738281 L 182.5 209.285156 L 181.863281 209.285156 C 179.40625 209.285156 177.40625 211.285156 177.40625 213.742188 C 177.40625 216.199219 179.40625 218.199219 181.863281 218.199219 L 185.683594 218.199219 C 186.738281 218.199219 187.59375 219.054688 187.59375 220.109375 C 187.59375 221.164062 186.738281 222.019531 185.683594 222.019531 L 178.679688 222.019531 L 178.679688 224.566406 L 182.5 224.566406 L 182.5 227.113281 L 185.046875 227.113281 L 185.046875 224.566406 L 185.683594 224.566406 C 188.140625 224.566406 190.140625 222.566406 190.140625 220.109375 C 190.140625 217.652344 188.140625 215.652344 185.683594 215.652344 "/>
<path style=" stroke:none;fill-rule:nonzero;fill:rgb(32.939148%,59.609985%,84.309387%);fill-opacity:1;" d="M 192.6875 171.085938 L 192.6875 178.113281 C 192.6875 180.855469 194.152344 183.386719 196.535156 184.746094 L 201.597656 187.640625 L 206.664062 184.746094 C 209.046875 183.386719 210.511719 180.855469 210.511719 178.113281 L 210.511719 171.085938 C 208.03125 171.085938 205.617188 170.28125 203.636719 168.792969 L 201.597656 167.265625 L 199.558594 168.792969 C 197.582031 170.28125 195.167969 171.085938 192.6875 171.085938 "/>
<path style=" stroke:none;fill-rule:nonzero;fill:rgb(41.569519%,66.668701%,87.449646%);fill-opacity:1;" d="M 202.871094 174.90625 L 200.324219 174.90625 L 200.324219 172.359375 L 202.871094 172.359375 L 202.871094 174.90625 "/>
<path style=" stroke:none;fill-rule:nonzero;fill:rgb(41.569519%,66.668701%,87.449646%);fill-opacity:1;" d="M 202.871094 182.546875 L 200.324219 182.546875 L 200.324219 180 L 202.871094 180 L 202.871094 182.546875 "/>
<path style=" stroke:none;fill-rule:nonzero;fill:rgb(41.569519%,66.668701%,87.449646%);fill-opacity:1;" d="M 199.050781 178.621094 L 196.503906 178.621094 L 196.503906 176.074219 L 199.050781 176.074219 L 199.050781 178.621094 "/>
<path style=" stroke:none;fill-rule:nonzero;fill:rgb(41.569519%,66.668701%,87.449646%);fill-opacity:1;" d="M 206.691406 178.726562 L 204.144531 178.726562 L 204.144531 176.179688 L 206.691406 176.179688 L 206.691406 178.726562 "/>
<path style=" stroke:none;fill-rule:nonzero;fill:rgb(47.44873%,77.249146%,78.42865%);fill-opacity:1;" d="M 229.613281 195.277344 L 197.777344 195.277344 L 197.777344 192.734375 L 229.613281 192.734375 L 229.613281 195.277344 "/>
<path style=" stroke:none;fill-rule:nonzero;fill:rgb(47.44873%,77.249146%,78.42865%);fill-opacity:1;" d="M 215.605469 201.644531 L 202.871094 201.644531 L 202.871094 199.097656 L 215.605469 199.097656 L 215.605469 201.644531 "/>
<path style=" stroke:none;fill-rule:nonzero;fill:rgb(47.44873%,77.249146%,78.42865%);fill-opacity:1;" d="M 229.613281 201.644531 L 218.152344 201.644531 L 218.152344 199.097656 L 229.613281 199.097656 L 229.613281 201.644531 "/>
<path style=" stroke:none;fill-rule:nonzero;fill:rgb(47.44873%,77.249146%,78.42865%);fill-opacity:1;" d="M 229.613281 208.011719 L 206.691406 208.011719 L 206.691406 205.464844 L 229.613281 205.464844 L 229.613281 208.011719 "/>
<path style=" stroke:none;fill-rule:nonzero;fill:rgb(47.44873%,77.249146%,78.42865%);fill-opacity:1;" d="M 220.699219 214.378906 L 206.691406 214.378906 L 206.691406 211.832031 L 220.699219 211.832031 L 220.699219 214.378906 "/>
<path style=" stroke:none;fill-rule:nonzero;fill:rgb(47.44873%,77.249146%,78.42865%);fill-opacity:1;" d="M 229.613281 214.378906 L 223.246094 214.378906 L 223.246094 211.832031 L 229.613281 211.832031 L 229.613281 214.378906 "/>
<path style=" stroke:none;fill-rule:nonzero;fill:rgb(47.44873%,77.249146%,78.42865%);fill-opacity:1;" d="M 229.613281 220.746094 L 206.691406 220.746094 L 206.691406 218.199219 L 229.613281 218.199219 L 229.613281 220.746094 "/>
<path style=" stroke:none;fill-rule:nonzero;fill:rgb(47.44873%,77.249146%,78.42865%);fill-opacity:1;" d="M 229.613281 188.914062 L 216.878906 188.914062 L 216.878906 186.367188 L 229.613281 186.367188 L 229.613281 188.914062 "/>
<path style=" stroke:none;fill-rule:nonzero;fill:rgb(47.44873%,77.249146%,78.42865%);fill-opacity:1;" d="M 229.613281 182.546875 L 216.878906 182.546875 L 216.878906 180 L 229.613281 180 L 229.613281 182.546875 "/>
<g clip-path="url(#clip5)" clip-rule="nonzero">
<path style=" stroke:none;fill-rule:nonzero;fill:rgb(47.44873%,77.249146%,78.42865%);fill-opacity:1;" d="M 235.980469 177.453125 L 223.246094 177.453125 L 223.246094 174.90625 L 235.980469 174.90625 L 235.980469 177.453125 "/>
</g>
</g>
</svg>
