<?xml version="1.0" encoding="UTF-8"?>
<svg xmlns="http://www.w3.org/2000/svg" xmlns:xlink="http://www.w3.org/1999/xlink" width="397.5pt" height="397.500002pt" viewBox="0 0 397.5 397.500002" version="1.2">
<defs>
<clipPath id="clip1">
  <path d="M 168 202 L 202 202 L 202 235.339844 L 168 235.339844 Z M 168 202 "/>
</clipPath>
<clipPath id="clip2">
  <path d="M 198 161.941406 L 234.664062 161.941406 L 234.664062 199 L 198 199 Z M 198 161.941406 "/>
</clipPath>
<clipPath id="clip3">
  <path d="M 162.21875 176 L 195 176 L 195 210 L 162.21875 210 Z M 162.21875 176 "/>
</clipPath>
</defs>
<g id="surface1">
<g clip-path="url(#clip1)" clip-rule="nonzero">
<path style=" stroke:none;fill-rule:nonzero;fill:rgb(97.24884%,61.959839%,22.749329%);fill-opacity:1;" d="M 185.554688 229.078125 L 194.589844 229.078125 L 194.589844 219.71875 C 195.269531 220.15625 196.078125 220.414062 196.941406 220.414062 C 199.355469 220.414062 201.308594 218.449219 201.308594 216.023438 C 201.308594 213.601562 199.355469 211.632812 196.941406 211.632812 C 196.078125 211.632812 195.269531 211.890625 194.589844 212.328125 L 194.589844 202.96875 L 168.621094 202.96875 L 168.621094 212.351562 C 169.308594 211.898438 170.128906 211.632812 171.007812 211.632812 C 173.417969 211.632812 175.375 213.601562 175.375 216.023438 C 175.375 218.449219 173.417969 220.414062 171.007812 220.414062 C 170.128906 220.414062 169.308594 220.148438 168.621094 219.695312 L 168.621094 229.078125 L 177.65625 229.078125 C 177.394531 229.644531 177.242188 230.273438 177.242188 230.9375 C 177.242188 233.363281 179.195312 235.328125 181.605469 235.328125 C 184.015625 235.328125 185.972656 233.363281 185.972656 230.9375 C 185.972656 230.273438 185.820312 229.644531 185.554688 229.078125 "/>
</g>
<g clip-path="url(#clip2)" clip-rule="nonzero">
<path style=" stroke:none;fill-rule:nonzero;fill:rgb(95.689392%,42.749023%,50.979614%);fill-opacity:1;" d="M 206.957031 186.304688 C 208.332031 184.3125 211.050781 183.816406 213.03125 185.195312 C 215.015625 186.578125 215.507812 189.3125 214.132812 191.304688 C 213.617188 192.058594 212.90625 192.59375 212.117188 192.898438 L 219.820312 198.269531 L 224.9375 190.84375 C 225.246094 191.34375 225.652344 191.789062 226.164062 192.144531 C 228.144531 193.527344 230.863281 193.03125 232.238281 191.039062 C 233.613281 189.046875 233.117188 186.3125 231.136719 184.929688 C 230.628906 184.574219 230.070312 184.347656 229.496094 184.234375 L 234.613281 176.808594 L 227.121094 171.589844 C 227.726562 171.269531 228.261719 170.808594 228.675781 170.207031 C 230.050781 168.214844 229.558594 165.480469 227.578125 164.097656 C 225.59375 162.71875 222.875 163.214844 221.5 165.207031 C 221.085938 165.808594 220.847656 166.476562 220.761719 167.15625 L 213.269531 161.933594 L 208.078125 169.464844 C 207.761719 168.859375 207.304688 168.320312 206.707031 167.902344 C 204.726562 166.523438 202.003906 167.019531 200.632812 169.011719 C 199.257812 171.003906 199.75 173.738281 201.734375 175.121094 C 202.332031 175.535156 202.996094 175.777344 203.667969 175.863281 L 198.476562 183.394531 L 206.183594 188.765625 C 206.1875 187.914062 206.441406 187.058594 206.957031 186.304688 "/>
</g>
<path style=" stroke:none;fill-rule:nonzero;fill:rgb(94.119263%,25.099182%,26.669312%);fill-opacity:1;" d="M 220.558594 220.046875 C 221.09375 220.28125 221.683594 220.414062 222.304688 220.414062 C 224.714844 220.414062 226.667969 218.449219 226.667969 216.023438 C 226.667969 213.601562 224.714844 211.632812 222.304688 211.632812 C 221.683594 211.632812 221.09375 211.765625 220.558594 212 L 220.558594 202.96875 L 211.1875 202.96875 C 211.660156 202.265625 211.941406 201.414062 211.941406 200.5 C 211.941406 198.078125 209.988281 196.113281 207.574219 196.113281 C 205.164062 196.113281 203.210938 198.078125 203.210938 200.5 C 203.210938 201.414062 203.488281 202.265625 203.964844 202.96875 L 194.589844 202.96875 L 194.589844 212.328125 C 195.269531 211.890625 196.078125 211.632812 196.941406 211.632812 C 199.355469 211.632812 201.308594 213.601562 201.308594 216.023438 C 201.308594 218.449219 199.355469 220.414062 196.941406 220.414062 C 196.078125 220.414062 195.269531 220.15625 194.589844 219.71875 L 194.589844 229.078125 L 204.011719 229.078125 C 203.507812 228.363281 203.210938 227.492188 203.210938 226.550781 C 203.210938 224.125 205.164062 222.160156 207.574219 222.160156 C 209.988281 222.160156 211.941406 224.125 211.941406 226.550781 C 211.941406 227.492188 211.644531 228.363281 211.140625 229.078125 L 220.558594 229.078125 L 220.558594 220.046875 "/>
<g clip-path="url(#clip3)" clip-rule="nonzero">
<path style=" stroke:none;fill-rule:nonzero;fill:rgb(59.999084%,86.268616%,76.858521%);fill-opacity:1;" d="M 194.589844 193.804688 C 193.988281 194.121094 193.304688 194.300781 192.578125 194.300781 C 190.167969 194.300781 188.210938 192.335938 188.210938 189.914062 C 188.210938 187.488281 190.167969 185.523438 192.578125 185.523438 C 193.304688 185.523438 193.988281 185.703125 194.589844 186.019531 L 194.589844 176.855469 L 185.757812 176.855469 C 185.894531 177.28125 185.972656 177.738281 185.972656 178.210938 C 185.972656 180.632812 184.015625 182.597656 181.605469 182.597656 C 179.195312 182.597656 177.242188 180.632812 177.242188 178.210938 C 177.242188 177.738281 177.316406 177.28125 177.453125 176.855469 L 168.621094 176.855469 L 168.621094 186.003906 C 168.027344 185.699219 167.355469 185.523438 166.644531 185.523438 C 164.230469 185.523438 162.277344 187.488281 162.277344 189.914062 C 162.277344 192.335938 164.234375 194.300781 166.644531 194.300781 C 167.355469 194.300781 168.027344 194.125 168.621094 193.820312 L 168.621094 202.96875 L 177.6875 202.96875 C 177.402344 203.550781 177.242188 204.199219 177.242188 204.890625 C 177.242188 207.3125 179.195312 209.277344 181.605469 209.277344 C 184.015625 209.277344 185.972656 207.3125 185.972656 204.890625 C 185.972656 204.199219 185.808594 203.550781 185.527344 202.96875 L 194.589844 202.96875 L 194.589844 193.804688 "/>
</g>
</g>
</svg>
