<?xml version="1.0" encoding="UTF-8"?>
<svg xmlns="http://www.w3.org/2000/svg" xmlns:xlink="http://www.w3.org/1999/xlink" width="397.5pt" height="397.500002pt" viewBox="0 0 397.5 397.500002" version="1.2">
<defs>
<clipPath id="clip1">
  <path d="M 131.128906 159 L 265.894531 159 L 265.894531 250 L 131.128906 250 Z M 131.128906 159 "/>
</clipPath>
<clipPath id="clip2">
  <path d="M 183 175 L 264 175 L 264 254.804688 L 183 254.804688 Z M 183 175 "/>
</clipPath>
<clipPath id="clip3">
  <path d="M 144 164 L 265.894531 164 L 265.894531 249 L 144 249 Z M 144 164 "/>
</clipPath>
<clipPath id="clip4">
  <path d="M 144 143.054688 L 252 143.054688 L 252 241 L 144 241 Z M 144 143.054688 "/>
</clipPath>
</defs>
<g id="surface1">
<g clip-path="url(#clip1)" clip-rule="nonzero">
<path style=" stroke:none;fill-rule:nonzero;fill:rgb(99.609375%,81.17981%,27.839661%);fill-opacity:1;" d="M 265.816406 212.367188 L 265.816406 216.9375 L 209.902344 249.867188 L 131.207031 204.019531 C 131.207031 201.191406 132.6875 198.554688 135.109375 197.140625 L 137.9375 195.507812 L 137.964844 195.480469 L 161.546875 181.722656 L 164.238281 175.820312 C 164.265625 175.714844 177.378906 166.847656 177.511719 166.875 L 178.457031 166.332031 L 195.550781 160.214844 C 196.464844 159.667969 197.597656 159.667969 198.511719 160.214844 L 198.136719 166.523438 L 213.910156 175.714844 C 214.207031 175.875 214.371094 176.175781 214.398438 176.5 C 214.421875 176.855469 207.15625 177.507812 206.804688 177.726562 L 205.539062 179.222656 L 202.980469 182.402344 C 203.035156 183.273438 207.261719 182.945312 207.207031 183.816406 C 207.074219 185.558594 206.375 187.1875 205.40625 188.628906 C 205.78125 188.546875 206.050781 188.464844 206.183594 188.386719 L 208.285156 189.171875 C 209.171875 188.65625 212.511719 187.949219 213.375 188.464844 L 222.769531 187.296875 Z M 265.816406 212.367188 "/>
</g>
<g clip-path="url(#clip2)" clip-rule="nonzero">
<path style=" stroke:none;fill-rule:nonzero;fill:rgb(100%,86.268616%,52.159119%);fill-opacity:1;" d="M 220.667969 190.667969 C 218.703125 192.382812 216.226562 193.359375 213.75 194.175781 C 211.730469 194.828125 209.683594 195.402344 207.585938 195.671875 C 204.867188 196.027344 202.09375 195.863281 199.347656 195.699219 C 197.328125 195.5625 195.253906 195.429688 193.316406 194.882812 C 190.246094 194.015625 187.5 192.21875 184.96875 190.234375 C 184.40625 189.800781 183.839844 189.335938 183.515625 188.683594 C 183.058594 187.8125 183.167969 186.753906 183.328125 185.773438 C 183.570312 184.304688 183.730469 182.15625 184.621094 180.769531 C 184.648438 180.742188 184.675781 180.691406 184.699219 180.664062 C 184.726562 180.609375 184.753906 180.582031 184.808594 180.527344 C 184.835938 180.472656 184.890625 180.417969 184.917969 180.390625 C 184.945312 180.363281 184.96875 180.335938 184.996094 180.28125 C 185.078125 180.199219 185.132812 180.117188 185.210938 180.0625 C 186.613281 178.839844 188.253906 177.671875 190.058594 177.207031 C 190.460938 177.101562 190.839844 177.019531 191.242188 176.910156 C 191.269531 176.910156 191.324219 176.882812 191.351562 176.882812 C 193.371094 176.367188 195.417969 175.902344 197.488281 175.714844 C 199.914062 175.496094 202.335938 175.632812 204.785156 175.714844 C 207.988281 175.792969 211.300781 175.769531 214.34375 176.554688 C 214.371094 176.910156 214.207031 177.289062 213.859375 177.480469 L 209.847656 179.820312 L 207.613281 181.125 L 208.445312 180.636719 C 209.335938 180.117188 210.410156 180.117188 211.273438 180.636719 L 222.742188 187.324219 C 222.6875 187.679688 222.609375 188.003906 222.472656 188.332031 C 222.125 189.226562 221.449219 190.015625 220.667969 190.667969 Z M 260.03125 238.257812 L 263.234375 238.988281 L 243.070312 227.242188 L 215.5 243.476562 L 235.53125 255.167969 L 234.5625 253.128906 L 237.871094 253.890625 L 236.875 251.769531 L 240.1875 252.53125 L 239.191406 250.410156 L 242.503906 251.171875 L 241.507812 249.050781 L 244.820312 249.8125 L 243.824219 247.691406 L 247.132812 248.453125 L 246.136719 246.332031 L 249.449219 247.09375 L 248.453125 244.972656 L 251.765625 245.734375 L 250.769531 243.613281 L 254.078125 244.375 L 253.082031 242.253906 L 256.394531 243.015625 L 255.398438 240.894531 L 258.710938 241.65625 L 257.714844 239.535156 L 261.027344 240.296875 Z M 260.03125 238.257812 "/>
</g>
<g clip-path="url(#clip3)" clip-rule="nonzero">
<path style=" stroke:none;fill-rule:nonzero;fill:rgb(24.308777%,53.729248%,24.308777%);fill-opacity:1;" d="M 265.386719 212.640625 L 265.386719 215.875 L 244.496094 228.058594 L 243.097656 227.242188 L 215.527344 243.476562 L 216.792969 244.210938 L 210.089844 248.125 C 210.574219 246.003906 211.894531 244.128906 213.804688 243.015625 Z M 172.667969 194.613281 L 171.1875 193.742188 L 163.027344 198.390625 L 164.507812 199.261719 L 167.550781 197.523438 L 174.820312 201.761719 L 176.894531 200.566406 L 169.625 196.324219 Z M 219.699219 198.5 C 210.4375 203.9375 195.253906 203.964844 185.992188 198.582031 C 184.351562 197.628906 183.003906 196.570312 181.953125 195.429688 L 180.257812 196.40625 L 181.390625 198.039062 L 179.183594 199.289062 L 174.417969 191.894531 L 176.625 190.640625 L 179.425781 191.238281 C 179.15625 190.425781 179.019531 189.582031 179.019531 188.738281 L 179.019531 183.816406 C 179.019531 183.816406 179.261719 184.0625 179.640625 184.441406 C 180.609375 181.996094 182.707031 179.683594 185.964844 177.78125 C 186.15625 177.671875 186.34375 177.589844 186.503906 177.480469 C 186.988281 176.421875 187.636719 175.414062 188.441406 174.597656 L 189.949219 174.488281 C 190.21875 174.652344 190.570312 174.597656 190.894531 174.542969 C 193.34375 174.027344 195.550781 172.640625 197.972656 172.015625 C 200.933594 171.253906 204.03125 171.632812 207.074219 172.070312 C 208.660156 172.3125 210.222656 172.558594 211.730469 173.046875 C 213.964844 173.78125 215.984375 175.0625 217.976562 176.367188 C 218.328125 176.582031 218.675781 176.882812 218.8125 177.234375 C 219.109375 177.398438 219.402344 177.5625 219.671875 177.726562 C 222.742188 179.519531 224.789062 181.667969 225.839844 183.953125 C 226.296875 183.789062 226.644531 183.734375 226.644531 183.734375 L 226.644531 188.65625 C 226.644531 192.21875 224.332031 195.78125 219.699219 198.5 Z M 180.984375 194.257812 C 180.691406 193.878906 180.449219 193.496094 180.230469 193.089844 L 177.539062 192.464844 L 179.398438 195.15625 Z M 206.023438 196.054688 C 212.402344 194.910156 217.949219 193.0625 221.019531 190.53125 C 222.015625 187.160156 220.320312 183.597656 215.878906 181.015625 C 208.660156 176.828125 196.898438 176.855469 189.707031 181.070312 C 185.105469 183.761719 183.460938 187.570312 184.78125 191.050781 C 184.96875 191.292969 185.160156 190.398438 185.292969 190.585938 C 185.75 191.238281 187.257812 192.328125 189.441406 193.386719 L 189.492188 193.386719 C 193.503906 195.347656 199.832031 197.167969 206.023438 196.054688 Z M 249.289062 216.230469 C 250.6875 215.414062 251.84375 213.375 251.84375 211.742188 C 251.84375 210.738281 251.414062 210.113281 250.769531 209.949219 C 250.335938 209.839844 248.078125 208.941406 247.511719 209.269531 C 246.109375 210.085938 244.550781 210.710938 244.550781 212.339844 C 243.285156 212.207031 246.917969 215.929688 247.214844 216.230469 C 247.699219 216.664062 248.453125 216.71875 249.289062 216.230469 Z M 175.277344 170.382812 L 144.992188 164.238281 L 144.992188 172.070312 L 161.546875 181.722656 L 166.769531 178.675781 Z M 175.277344 170.382812 "/>
</g>
<g clip-path="url(#clip4)" clip-rule="nonzero">
<path style=" stroke:none;fill-rule:nonzero;fill:rgb(36.079407%,67.83905%,36.079407%);fill-opacity:1;" d="M 185.941406 173.972656 C 176.679688 179.410156 176.707031 188.25 185.964844 193.632812 C 195.253906 199.015625 210.410156 198.988281 219.671875 193.550781 C 228.933594 188.113281 228.90625 179.277344 219.644531 173.890625 C 210.359375 168.507812 195.199219 168.535156 185.941406 173.972656 Z M 215.878906 176.09375 C 220.050781 178.515625 221.800781 181.832031 221.152344 185.011719 C 220.667969 182.703125 218.917969 180.445312 215.878906 178.675781 C 208.660156 174.488281 196.898438 174.515625 189.707031 178.730469 C 186.667969 180.5 184.917969 182.757812 184.457031 185.09375 C 184.539062 185.503906 184.675781 185.882812 184.808594 186.265625 C 185.5625 184.359375 187.179688 182.566406 189.707031 181.097656 C 196.898438 176.882812 208.6875 176.855469 215.878906 181.042969 C 218.40625 182.511719 220.050781 184.304688 220.804688 186.210938 C 220.050781 188.113281 218.433594 189.90625 215.902344 191.375 C 209.253906 195.265625 198.675781 195.589844 191.433594 192.300781 C 191.457031 191.648438 190.839844 190.804688 190.300781 190.480469 C 190.03125 190.34375 189.519531 190.179688 189.007812 190.96875 C 187.851562 190.207031 186.910156 189.390625 186.183594 188.519531 C 186.773438 188.03125 186.128906 187.433594 185.078125 186.863281 C 183.246094 183.191406 184.78125 179.058594 189.707031 176.175781 C 196.898438 171.933594 208.6875 171.90625 215.878906 176.09375 Z M 193.640625 206.140625 L 229.957031 227.324219 L 208.152344 240.023438 L 171.859375 218.839844 Z M 251.117188 210.085938 C 251.117188 210.085938 251.089844 210.085938 251.089844 210.058594 Z M 222.070312 193.226562 L 251.089844 210.058594 C 250.632812 209.785156 249.988281 209.839844 249.289062 210.246094 C 247.886719 211.0625 246.730469 213.101562 246.730469 214.734375 C 246.730469 215.550781 247.027344 216.121094 247.484375 216.394531 L 218.40625 199.535156 C 217.949219 199.261719 217.679688 198.691406 217.679688 197.875 C 217.679688 196.214844 218.839844 194.203125 220.238281 193.386719 C 220.9375 192.953125 221.585938 192.925781 222.070312 193.226562 Z M 166.769531 178.675781 L 166.769531 176.9375 L 144.964844 164.238281 L 181.308594 143.054688 L 203.089844 155.753906 L 203.089844 163.585938 L 198.109375 166.496094 L 194.367188 164.320312 C 193.449219 163.777344 192.320312 163.777344 191.40625 164.320312 L 181.148438 170.300781 L 180.207031 170.847656 C 180.070312 170.820312 179.988281 170.871094 179.960938 170.980469 Z M 166.769531 178.675781 "/>
</g>
<path style=" stroke:none;fill-rule:nonzero;fill:rgb(55.288696%,73.728943%,44.309998%);fill-opacity:1;" d="M 193.34375 152.21875 L 186.640625 148.304688 C 183.355469 149.417969 179.207031 149.417969 175.953125 148.277344 L 153.957031 161.109375 C 155.921875 163.042969 155.921875 165.460938 153.957031 167.390625 L 161.386719 171.742188 C 164.699219 170.601562 168.84375 170.601562 172.15625 171.742188 L 193.398438 159.34375 C 190.757812 157.222656 190.757812 154.339844 193.34375 152.21875 Z M 182.492188 163.53125 C 179.371094 165.351562 173.449219 164.863281 169.273438 162.445312 C 165.101562 160.023438 164.265625 156.542969 167.390625 154.746094 C 170.511719 152.925781 176.4375 153.414062 180.609375 155.835938 C 184.78125 158.253906 185.589844 161.738281 182.492188 163.53125 Z M 180.742188 161.082031 C 180.742188 161.164062 180.691406 161.21875 180.554688 161.300781 L 177.78125 162.90625 C 177.648438 162.988281 177.539062 163.015625 177.433594 163.015625 C 177.324219 163.015625 177.214844 162.960938 177.136719 162.90625 C 177.027344 162.851562 177 162.769531 177 162.714844 C 177 162.632812 177.054688 162.578125 177.191406 162.496094 L 178.320312 161.84375 L 176.757812 160.8125 L 175.0625 161.789062 C 174.980469 161.84375 174.875 161.871094 174.792969 161.871094 C 174.714844 161.871094 174.632812 161.84375 174.578125 161.789062 C 174.496094 161.738281 174.46875 161.710938 174.46875 161.65625 C 174.46875 161.601562 174.523438 161.546875 174.605469 161.492188 L 176.300781 160.511719 L 175.117188 159.722656 L 173.421875 160.703125 C 173.339844 160.757812 173.230469 160.785156 173.152344 160.785156 C 173.070312 160.785156 172.988281 160.757812 172.9375 160.703125 C 172.882812 160.648438 172.828125 160.621094 172.828125 160.566406 C 172.828125 160.511719 172.882812 160.457031 172.964844 160.402344 L 174.496094 159.507812 L 168.492188 158.203125 L 168.199219 158.363281 C 168.0625 158.445312 167.957031 158.472656 167.847656 158.472656 C 167.738281 158.472656 167.632812 158.445312 167.523438 158.363281 C 167.417969 158.308594 167.390625 158.230469 167.390625 158.175781 C 167.390625 158.09375 167.445312 158.039062 167.578125 157.957031 L 169.003906 157.113281 C 169.140625 157.03125 169.246094 157.003906 169.355469 157.003906 C 169.464844 157.003906 169.570312 157.03125 169.679688 157.113281 C 169.785156 157.167969 169.8125 157.25 169.8125 157.304688 C 169.8125 157.386719 169.757812 157.441406 169.625 157.523438 L 169.113281 157.820312 L 174.605469 159.015625 L 173.015625 155.5625 L 172.503906 155.863281 C 172.371094 155.945312 172.261719 155.972656 172.15625 155.972656 C 172.046875 155.972656 171.941406 155.945312 171.832031 155.863281 C 171.722656 155.808594 171.699219 155.726562 171.699219 155.671875 C 171.699219 155.589844 171.75 155.535156 171.886719 155.453125 L 173.339844 154.613281 C 173.472656 154.53125 173.582031 154.503906 173.691406 154.503906 C 173.796875 154.503906 173.90625 154.53125 174.011719 154.613281 C 174.121094 154.667969 174.148438 154.746094 174.148438 154.800781 C 174.148438 154.882812 174.09375 154.9375 173.960938 155.019531 L 173.636719 155.210938 L 175.386719 158.988281 L 176.894531 158.121094 C 176.972656 158.066406 177.054688 158.039062 177.136719 158.039062 C 177.214844 158.039062 177.296875 158.066406 177.351562 158.121094 C 177.40625 158.175781 177.460938 158.203125 177.460938 158.253906 C 177.460938 158.308594 177.433594 158.363281 177.324219 158.417969 L 175.628906 159.398438 L 176.8125 160.1875 L 178.507812 159.207031 C 178.589844 159.152344 178.671875 159.125 178.75 159.125 C 178.832031 159.125 178.914062 159.152344 178.964844 159.207031 C 179.019531 159.261719 179.074219 159.289062 179.074219 159.34375 C 179.074219 159.398438 179.046875 159.453125 178.941406 159.507812 L 177.242188 160.484375 L 178.804688 161.519531 L 179.9375 160.867188 C 180.070312 160.785156 180.179688 160.757812 180.285156 160.757812 C 180.394531 160.757812 180.5 160.785156 180.609375 160.867188 C 180.691406 160.949219 180.742188 161.03125 180.742188 161.082031 Z M 196.601562 189.335938 L 191.296875 188.875 L 192.050781 191.945312 L 191.457031 192.273438 C 190.867188 192 190.300781 191.730469 189.761719 191.402344 C 189.492188 191.238281 189.25 191.105469 189.007812 190.941406 L 188.496094 188.683594 L 186.183594 188.492188 C 185.722656 187.949219 185.375 187.40625 185.078125 186.835938 L 188.417969 187.160156 L 187.609375 184.359375 L 190.003906 183 L 191.054688 187.296875 L 199.078125 187.921875 Z M 220.992188 224.199219 L 199.023438 211.390625 C 195.738281 212.53125 191.621094 212.53125 188.335938 211.417969 L 181.632812 215.332031 C 184.214844 217.453125 184.214844 220.335938 181.578125 222.457031 L 202.792969 234.828125 C 206.078125 233.6875 210.25 233.6875 213.5625 234.828125 L 220.992188 230.480469 C 219.027344 228.546875 219.027344 226.101562 220.992188 224.199219 Z M 205.699219 225.53125 C 201.554688 227.949219 195.605469 228.4375 192.480469 226.617188 C 189.359375 224.796875 190.21875 221.34375 194.367188 218.921875 C 198.511719 216.503906 204.460938 216.011719 207.585938 217.835938 C 210.707031 219.65625 209.847656 223.109375 205.699219 225.53125 Z M 207.613281 221.316406 C 207.613281 221.398438 207.558594 221.449219 207.476562 221.503906 C 207.371094 221.558594 207.289062 221.613281 207.15625 221.613281 C 207.046875 221.613281 206.910156 221.585938 206.804688 221.503906 L 206.507812 221.34375 L 200.503906 222.648438 L 202.039062 223.542969 C 202.121094 223.597656 202.171875 223.652344 202.171875 223.707031 C 202.171875 223.761719 202.148438 223.816406 202.066406 223.84375 C 201.984375 223.898438 201.929688 223.925781 201.851562 223.925781 C 201.769531 223.925781 201.6875 223.898438 201.582031 223.84375 L 199.886719 222.863281 L 198.699219 223.652344 L 200.398438 224.632812 C 200.476562 224.6875 200.53125 224.742188 200.53125 224.796875 C 200.53125 224.851562 200.503906 224.90625 200.421875 224.929688 C 200.371094 224.984375 200.289062 224.984375 200.207031 225.011719 C 200.128906 225.011719 200.046875 224.984375 199.9375 224.929688 L 198.242188 223.953125 L 196.679688 224.984375 L 197.8125 225.636719 C 197.945312 225.71875 198 225.773438 198 225.855469 C 198 225.9375 197.945312 225.992188 197.867188 226.046875 C 197.785156 226.101562 197.675781 226.128906 197.570312 226.15625 C 197.460938 226.15625 197.328125 226.128906 197.21875 226.046875 L 194.445312 224.441406 C 194.3125 224.359375 194.257812 224.304688 194.257812 224.222656 C 194.257812 224.144531 194.3125 224.089844 194.394531 224.035156 C 194.5 223.980469 194.582031 223.925781 194.714844 223.925781 C 194.824219 223.925781 194.957031 223.953125 195.066406 224.035156 L 196.195312 224.6875 L 197.757812 223.652344 L 196.0625 222.675781 C 195.980469 222.621094 195.929688 222.566406 195.929688 222.511719 C 195.929688 222.457031 195.953125 222.402344 196.035156 222.375 C 196.117188 222.320312 196.171875 222.292969 196.25 222.292969 C 196.332031 222.292969 196.414062 222.320312 196.492188 222.375 L 198.1875 223.355469 L 199.375 222.566406 L 197.675781 221.585938 C 197.597656 221.53125 197.542969 221.476562 197.542969 221.421875 C 197.542969 221.371094 197.570312 221.316406 197.652344 221.289062 C 197.703125 221.234375 197.785156 221.234375 197.867188 221.207031 C 197.945312 221.207031 198.027344 221.234375 198.109375 221.289062 L 199.617188 222.15625 L 201.367188 218.378906 L 201.042969 218.1875 C 200.910156 218.105469 200.855469 218.050781 200.855469 217.96875 C 200.855469 217.890625 200.910156 217.835938 200.988281 217.78125 C 201.097656 217.726562 201.175781 217.671875 201.3125 217.671875 C 201.421875 217.671875 201.554688 217.699219 201.664062 217.78125 L 203.117188 218.621094 C 203.25 218.703125 203.304688 218.757812 203.304688 218.839844 C 203.304688 218.921875 203.25 218.976562 203.167969 219.03125 C 203.0625 219.085938 202.980469 219.140625 202.847656 219.140625 C 202.738281 219.140625 202.605469 219.113281 202.496094 219.03125 L 201.984375 218.730469 L 200.398438 222.183594 L 205.890625 220.988281 L 205.378906 220.691406 C 205.242188 220.609375 205.1875 220.554688 205.1875 220.472656 C 205.1875 220.390625 205.242188 220.335938 205.324219 220.28125 C 205.429688 220.226562 205.511719 220.171875 205.648438 220.171875 C 205.753906 220.171875 205.890625 220.199219 205.996094 220.28125 L 207.421875 221.125 C 207.558594 221.179688 207.613281 221.234375 207.613281 221.316406 Z M 207.613281 221.316406 "/>
</g>
</svg>
