<?xml version="1.0" encoding="UTF-8"?>
<svg xmlns="http://www.w3.org/2000/svg" xmlns:xlink="http://www.w3.org/1999/xlink" width="397.5pt" height="397.500002pt" viewBox="0 0 397.5 397.500002" version="1.2">
<defs>
<clipPath id="clip1">
  <path d="M 136 158 L 269 158 L 269 253 L 136 253 Z M 136 158 "/>
</clipPath>
<clipPath id="clip2">
  <path d="M 157.589844 118.621094 L 293.292969 166.800781 L 253.644531 278.472656 L 117.941406 230.292969 Z M 157.589844 118.621094 "/>
</clipPath>
<clipPath id="clip3">
  <path d="M 157.589844 118.621094 L 293.292969 166.800781 L 253.644531 278.472656 L 117.941406 230.292969 Z M 157.589844 118.621094 "/>
</clipPath>
<clipPath id="clip4">
  <path d="M 157.589844 118.621094 L 293.039062 166.710938 L 253.5 278.074219 L 118.050781 229.984375 Z M 157.589844 118.621094 "/>
</clipPath>
<clipPath id="clip5">
  <path d="M 194 173 L 257 173 L 257 268 L 194 268 Z M 194 173 "/>
</clipPath>
<clipPath id="clip6">
  <path d="M 157.589844 118.621094 L 293.292969 166.800781 L 253.644531 278.472656 L 117.941406 230.292969 Z M 157.589844 118.621094 "/>
</clipPath>
<clipPath id="clip7">
  <path d="M 157.589844 118.621094 L 293.292969 166.800781 L 253.644531 278.472656 L 117.941406 230.292969 Z M 157.589844 118.621094 "/>
</clipPath>
<clipPath id="clip8">
  <path d="M 157.589844 118.621094 L 293.039062 166.710938 L 253.5 278.074219 L 118.050781 229.984375 Z M 157.589844 118.621094 "/>
</clipPath>
<clipPath id="clip9">
  <path d="M 161 144 L 268 144 L 268 252 L 161 252 Z M 161 144 "/>
</clipPath>
<clipPath id="clip10">
  <path d="M 157.589844 118.621094 L 293.292969 166.800781 L 253.644531 278.472656 L 117.941406 230.292969 Z M 157.589844 118.621094 "/>
</clipPath>
<clipPath id="clip11">
  <path d="M 157.589844 118.621094 L 293.292969 166.800781 L 253.644531 278.472656 L 117.941406 230.292969 Z M 157.589844 118.621094 "/>
</clipPath>
<clipPath id="clip12">
  <path d="M 157.589844 118.621094 L 293.039062 166.710938 L 253.5 278.074219 L 118.050781 229.984375 Z M 157.589844 118.621094 "/>
</clipPath>
<clipPath id="clip13">
  <path d="M 164 136 L 255 136 L 255 243 L 164 243 Z M 164 136 "/>
</clipPath>
<clipPath id="clip14">
  <path d="M 157.589844 118.621094 L 293.292969 166.800781 L 253.644531 278.472656 L 117.941406 230.292969 Z M 157.589844 118.621094 "/>
</clipPath>
<clipPath id="clip15">
  <path d="M 157.589844 118.621094 L 293.292969 166.800781 L 253.644531 278.472656 L 117.941406 230.292969 Z M 157.589844 118.621094 "/>
</clipPath>
<clipPath id="clip16">
  <path d="M 157.589844 118.621094 L 293.039062 166.710938 L 253.5 278.074219 L 118.050781 229.984375 Z M 157.589844 118.621094 "/>
</clipPath>
<clipPath id="clip17">
  <path d="M 171 139 L 220 139 L 220 240 L 171 240 Z M 171 139 "/>
</clipPath>
<clipPath id="clip18">
  <path d="M 157.589844 118.621094 L 293.292969 166.800781 L 253.644531 278.472656 L 117.941406 230.292969 Z M 157.589844 118.621094 "/>
</clipPath>
<clipPath id="clip19">
  <path d="M 157.589844 118.621094 L 293.292969 166.800781 L 253.644531 278.472656 L 117.941406 230.292969 Z M 157.589844 118.621094 "/>
</clipPath>
<clipPath id="clip20">
  <path d="M 157.589844 118.621094 L 293.039062 166.710938 L 253.5 278.074219 L 118.050781 229.984375 Z M 157.589844 118.621094 "/>
</clipPath>
</defs>
<g id="surface1">
<g clip-path="url(#clip1)" clip-rule="nonzero">
<g clip-path="url(#clip2)" clip-rule="nonzero">
<g clip-path="url(#clip3)" clip-rule="nonzero">
<g clip-path="url(#clip4)" clip-rule="nonzero">
<path style=" stroke:none;fill-rule:nonzero;fill:rgb(99.609375%,81.17981%,27.839661%);fill-opacity:1;" d="M 268.515625 235.53125 L 266.90625 240.070312 L 199.089844 252.824219 L 136.167969 179.207031 C 137.164062 176.398438 139.582031 174.304688 142.515625 173.765625 L 145.933594 173.152344 L 145.96875 173.136719 L 174.527344 167.882812 L 179.3125 162.984375 C 179.378906 162.886719 195.683594 158.757812 195.808594 158.835938 L 196.945312 158.628906 L 216.285156 158.652344 C 217.398438 158.441406 218.535156 158.84375 219.261719 159.710938 L 216.660156 165.839844 L 229.273438 180.601562 C 229.515625 180.867188 229.570312 181.222656 229.484375 181.558594 C 229.386719 181.917969 221.847656 179.972656 221.421875 180.0625 L 219.621094 181.097656 L 215.929688 183.34375 C 215.675781 184.226562 220.039062 185.414062 219.679688 186.257812 C 218.929688 187.9375 217.652344 189.308594 216.167969 190.394531 C 216.574219 190.449219 216.875 190.464844 217.039062 190.429688 L 218.871094 191.960938 C 219.945312 191.765625 223.550781 192.253906 224.234375 193.078125 L 234.089844 195.265625 Z M 268.515625 235.53125 "/>
</g>
</g>
</g>
</g>
<g clip-path="url(#clip5)" clip-rule="nonzero">
<g clip-path="url(#clip6)" clip-rule="nonzero">
<g clip-path="url(#clip7)" clip-rule="nonzero">
<g clip-path="url(#clip8)" clip-rule="nonzero">
<path style=" stroke:none;fill-rule:nonzero;fill:rgb(100%,86.268616%,52.159119%);fill-opacity:1;" d="M 230.792969 197.867188 C 228.210938 198.867188 225.378906 198.957031 222.601562 198.882812 C 220.339844 198.8125 218.082031 198.648438 215.875 198.167969 C 213.019531 197.550781 210.289062 196.398438 207.585938 195.253906 C 205.605469 194.398438 203.570312 193.527344 201.8125 192.292969 C 199.035156 190.335938 196.910156 187.570312 195.066406 184.695312 C 194.652344 184.0625 194.246094 183.402344 194.152344 182.636719 C 193.996094 181.609375 194.480469 180.597656 194.988281 179.679688 C 195.75 178.308594 196.667969 176.234375 198.050781 175.171875 C 198.085938 175.15625 198.132812 175.109375 198.171875 175.09375 C 198.214844 175.046875 198.253906 175.03125 198.328125 174.996094 C 198.371094 174.953125 198.445312 174.917969 198.484375 174.898438 C 198.519531 174.882812 198.554688 174.863281 198.601562 174.820312 C 198.710938 174.769531 198.796875 174.707031 198.894531 174.679688 C 200.734375 173.964844 202.796875 173.390625 204.773438 173.574219 C 205.21875 173.609375 205.625 173.664062 206.070312 173.699219 C 206.097656 173.710938 206.160156 173.703125 206.1875 173.710938 C 208.398438 173.917969 210.617188 174.191406 212.769531 174.742188 C 215.28125 175.390625 217.667969 176.390625 220.101562 177.34375 C 223.292969 178.566406 226.628906 179.722656 229.410156 181.589844 C 229.3125 181.953125 229.015625 182.273438 228.597656 182.335938 L 223.742188 183.230469 L 221.035156 183.726562 L 222.046875 183.539062 C 223.121094 183.34375 224.203125 183.726562 224.886719 184.546875 L 234.054688 195.285156 C 233.875 195.617188 233.679688 195.914062 233.429688 196.1875 C 232.761719 196.953125 231.804688 197.496094 230.792969 197.867188 Z M 253.570312 259.179688 L 256.53125 261.050781 L 240.40625 242.1875 L 206.972656 248.476562 L 222.980469 267.238281 L 222.726562 264.867188 L 225.785156 266.804688 L 225.53125 264.34375 L 228.59375 266.28125 L 228.339844 263.816406 L 231.398438 265.757812 L 231.144531 263.292969 L 234.207031 265.230469 L 233.953125 262.769531 L 237.011719 264.707031 L 236.757812 262.246094 L 239.820312 264.183594 L 239.566406 261.71875 L 242.625 263.660156 L 242.371094 261.195312 L 245.429688 263.132812 L 245.179688 260.671875 L 248.238281 262.609375 L 247.984375 260.148438 L 251.042969 262.085938 L 250.792969 259.625 L 253.851562 261.5625 Z M 253.570312 259.179688 "/>
</g>
</g>
</g>
</g>
<g clip-path="url(#clip9)" clip-rule="nonzero">
<g clip-path="url(#clip10)" clip-rule="nonzero">
<g clip-path="url(#clip11)" clip-rule="nonzero">
<g clip-path="url(#clip12)" clip-rule="nonzero">
<path style=" stroke:none;fill-rule:nonzero;fill:rgb(24.308777%,53.729248%,24.308777%);fill-opacity:1;" d="M 267.988281 235.648438 L 266.847656 238.863281 L 241.550781 243.507812 L 240.433594 242.199219 L 207 248.484375 L 208.011719 249.667969 L 199.894531 251.164062 C 201.128906 249.230469 203.117188 247.835938 205.433594 247.410156 Z M 181.15625 184.65625 L 179.972656 183.261719 L 170.136719 184.96875 L 171.316406 186.363281 L 174.988281 185.71875 L 180.796875 192.527344 L 183.304688 192.078125 L 177.492188 185.269531 Z M 227.054688 205.300781 C 215.828125 207.398438 200.558594 202.007812 193.148438 193.355469 C 191.835938 191.824219 190.855469 190.289062 190.203125 188.78125 L 188.152344 189.148438 L 188.714844 191.171875 L 186.054688 191.625 L 183.875 182.578125 L 186.535156 182.125 L 189.136719 183.71875 C 189.152344 182.8125 189.316406 181.925781 189.613281 181.089844 L 191.347656 176.199219 C 191.347656 176.199219 191.507812 176.527344 191.75 177.042969 C 193.585938 174.957031 196.511719 173.410156 200.457031 172.679688 C 200.6875 172.640625 200.90625 172.628906 201.105469 172.578125 C 201.964844 171.695312 202.96875 170.925781 204.070312 170.40625 L 205.625 170.835938 C 205.835938 171.09375 206.207031 171.164062 206.550781 171.226562 C 209.195312 171.585938 211.902344 170.996094 214.558594 171.238281 C 217.804688 171.539062 220.78125 173.023438 223.6875 174.542969 C 225.195312 175.351562 226.679688 176.152344 228.023438 177.175781 C 230.007812 178.703125 231.585938 180.691406 233.128906 182.699219 C 233.40625 183.039062 233.652344 183.460938 233.660156 183.863281 C 233.902344 184.128906 234.140625 184.398438 234.355469 184.65625 C 236.808594 187.53125 238.105469 190.398438 238.355469 193.039062 C 238.871094 193.042969 239.242188 193.113281 239.242188 193.113281 L 237.507812 198 C 236.25 201.539062 232.667969 204.25 227.054688 205.300781 Z M 189.640625 187.273438 C 189.476562 186.789062 189.367188 186.324219 189.296875 185.84375 L 186.8125 184.261719 L 187.730469 187.597656 Z M 214.171875 197.988281 C 220.988281 199.132812 227.214844 199.273438 231.191406 197.855469 C 233.382812 194.863281 232.933594 190.71875 229.378906 186.570312 C 223.605469 179.835938 211.769531 175.664062 203.058594 177.285156 C 197.484375 178.316406 194.488281 181.511719 194.589844 185.441406 C 194.691406 185.75 195.199219 184.925781 195.265625 185.164062 C 195.496094 185.976562 196.628906 187.59375 198.445312 189.425781 L 198.5 189.445312 C 201.839844 192.820312 207.554688 196.886719 214.171875 197.988281 Z M 250.539062 233.46875 C 252.234375 233.15625 254.117188 231.546875 254.691406 229.925781 C 255.046875 228.925781 254.835938 228.152344 254.242188 227.757812 C 253.847656 227.496094 251.894531 225.796875 251.210938 225.921875 C 249.515625 226.230469 247.726562 226.296875 247.148438 227.914062 C 245.925781 227.328125 248.265625 232.328125 248.457031 232.730469 C 248.789062 233.335938 249.527344 233.65625 250.539062 233.46875 Z M 192.324219 161.519531 L 164.050781 144.609375 L 161.289062 152.386719 L 174.527344 167.886719 L 180.847656 166.722656 Z M 192.324219 161.519531 "/>
</g>
</g>
</g>
</g>
<g clip-path="url(#clip13)" clip-rule="nonzero">
<g clip-path="url(#clip14)" clip-rule="nonzero">
<g clip-path="url(#clip15)" clip-rule="nonzero">
<g clip-path="url(#clip16)" clip-rule="nonzero">
<path style=" stroke:none;fill-rule:nonzero;fill:rgb(36.079407%,67.83905%,36.079407%);fill-opacity:1;" d="M 201.773438 168.890625 C 190.546875 170.988281 187.457031 179.777344 194.867188 188.429688 C 202.304688 197.089844 217.546875 202.472656 228.773438 200.375 C 240 198.277344 243.089844 189.488281 235.679688 180.835938 C 228.242188 172.175781 213 166.792969 201.773438 168.890625 Z M 231.113281 181.679688 C 234.457031 185.574219 235.042969 189.492188 233.273438 192.421875 C 233.601562 189.953125 232.636719 187.085938 230.203125 184.246094 C 224.429688 177.511719 212.59375 173.339844 203.882812 174.960938 C 200.203125 175.632812 197.648438 177.25 196.363281 179.410156 C 196.300781 179.84375 196.300781 180.269531 196.304688 180.695312 C 197.730469 179.074219 199.988281 177.867188 203.050781 177.3125 C 211.761719 175.691406 223.621094 179.871094 229.371094 186.597656 C 231.394531 188.957031 232.414062 191.328125 232.5 193.484375 C 231.070312 195.109375 228.8125 196.3125 225.753906 196.871094 C 217.699219 198.359375 206.949219 194.90625 200.832031 189.054688 C 201.085938 188.417969 200.761719 187.359375 200.335938 186.84375 C 200.113281 186.609375 199.65625 186.265625 198.867188 186.867188 C 197.96875 185.699219 197.3125 184.550781 196.886719 183.425781 C 197.65625 183.152344 197.214844 182.328125 196.363281 181.386719 C 195.816406 177.085938 198.816406 173.527344 204.785156 172.421875 C 213.507812 170.773438 225.367188 174.957031 231.113281 181.679688 Z M 198.167969 203.589844 L 227.199219 237.589844 L 200.804688 242.421875 L 171.800781 208.433594 Z M 254.546875 228.019531 C 254.546875 228.019531 254.519531 228.007812 254.53125 227.980469 Z M 231.296875 200.90625 L 254.53125 227.980469 C 254.167969 227.546875 253.496094 227.371094 252.648438 227.527344 C 250.957031 227.835938 249.074219 229.449219 248.496094 231.070312 C 248.210938 231.882812 248.304688 232.554688 248.671875 232.988281 L 225.390625 205.867188 C 225.027344 205.433594 224.960938 204.769531 225.246094 203.957031 C 225.832031 202.3125 227.703125 200.726562 229.398438 200.414062 C 230.257812 200.230469 230.914062 200.4375 231.296875 200.90625 Z M 180.847656 166.722656 L 181.464844 164.996094 L 164.023438 144.597656 L 208.023438 136.527344 L 225.433594 156.914062 L 222.671875 164.691406 L 216.640625 165.804688 L 213.648438 162.308594 C 212.917969 161.441406 211.78125 161.039062 210.671875 161.253906 L 198.253906 163.535156 L 197.113281 163.738281 C 196.988281 163.664062 196.886719 163.6875 196.820312 163.785156 Z M 180.847656 166.722656 "/>
</g>
</g>
</g>
</g>
<g clip-path="url(#clip17)" clip-rule="nonzero">
<g clip-path="url(#clip18)" clip-rule="nonzero">
<g clip-path="url(#clip19)" clip-rule="nonzero">
<g clip-path="url(#clip20)" clip-rule="nonzero">
<path style=" stroke:none;fill-rule:nonzero;fill:rgb(55.288696%,73.728943%,44.309998%);fill-opacity:1;" d="M 216.886719 149.925781 L 211.53125 143.644531 C 207.835938 143.578125 203.667969 142.097656 200.796875 139.800781 L 174.164062 144.703125 C 175.457031 147.320312 174.605469 149.726562 171.949219 150.941406 L 177.882812 157.914062 C 181.613281 157.960938 185.78125 159.441406 188.707031 161.757812 L 214.429688 157.019531 C 212.523438 153.972656 213.542969 151.109375 216.886719 149.925781 Z M 201.992188 157.289062 C 198.210938 157.984375 192.429688 155.382812 189.089844 151.492188 C 185.75 147.597656 186.140625 143.84375 189.910156 143.175781 C 193.691406 142.480469 199.472656 145.078125 202.8125 148.972656 C 206.152344 152.867188 205.738281 156.609375 201.992188 157.289062 Z M 201.097656 154.234375 C 201.070312 154.316406 200.996094 154.351562 200.832031 154.382812 L 197.476562 154.988281 C 197.3125 155.019531 197.195312 155.007812 197.089844 154.96875 C 196.980469 154.929688 196.890625 154.839844 196.828125 154.757812 C 196.738281 154.664062 196.742188 154.574219 196.761719 154.519531 C 196.789062 154.4375 196.863281 154.402344 197.027344 154.371094 L 198.394531 154.125 L 197.1875 152.542969 L 195.136719 152.910156 C 195.039062 152.933594 194.921875 152.921875 194.839844 152.894531 C 194.757812 152.863281 194.6875 152.808594 194.652344 152.734375 C 194.589844 152.652344 194.570312 152.617188 194.589844 152.5625 C 194.609375 152.507812 194.683594 152.472656 194.785156 152.449219 L 196.835938 152.082031 L 195.921875 150.875 L 193.871094 151.242188 C 193.769531 151.269531 193.652344 151.257812 193.574219 151.226562 C 193.492188 151.199219 193.417969 151.144531 193.382812 151.070312 C 193.351562 150.996094 193.304688 150.949219 193.324219 150.894531 C 193.34375 150.84375 193.417969 150.808594 193.515625 150.78125 L 195.375 150.4375 L 189.800781 147 L 189.445312 147.054688 C 189.28125 147.089844 189.164062 147.078125 189.058594 147.039062 C 188.949219 147 188.851562 146.933594 188.769531 146.816406 C 188.679688 146.722656 188.683594 146.632812 188.703125 146.578125 C 188.730469 146.496094 188.804688 146.464844 188.96875 146.429688 L 190.699219 146.101562 C 190.863281 146.070312 190.980469 146.082031 191.089844 146.117188 C 191.199219 146.15625 191.296875 146.222656 191.375 146.34375 C 191.464844 146.433594 191.464844 146.523438 191.445312 146.578125 C 191.414062 146.660156 191.34375 146.695312 191.179688 146.726562 L 190.558594 146.84375 L 195.65625 149.992188 L 195.277344 145.992188 L 194.660156 146.109375 C 194.496094 146.140625 194.375 146.128906 194.269531 146.089844 C 194.160156 146.054688 194.0625 145.988281 193.980469 145.867188 C 193.894531 145.777344 193.894531 145.683594 193.914062 145.632812 C 193.941406 145.550781 194.015625 145.515625 194.179688 145.480469 L 195.9375 145.164062 C 196.101562 145.128906 196.21875 145.140625 196.328125 145.179688 C 196.4375 145.21875 196.535156 145.285156 196.613281 145.402344 C 196.703125 145.496094 196.703125 145.585938 196.683594 145.640625 C 196.65625 145.722656 196.582031 145.757812 196.417969 145.789062 L 196.023438 145.863281 L 196.449219 150.242188 L 198.273438 149.914062 C 198.375 149.890625 198.464844 149.890625 198.546875 149.921875 C 198.625 149.949219 198.699219 150.007812 198.734375 150.078125 C 198.769531 150.152344 198.8125 150.199219 198.792969 150.253906 C 198.773438 150.308594 198.726562 150.351562 198.601562 150.367188 L 196.550781 150.734375 L 197.464844 151.941406 L 199.511719 151.574219 C 199.613281 151.546875 199.703125 151.550781 199.785156 151.578125 C 199.867188 151.605469 199.9375 151.664062 199.972656 151.734375 C 200.007812 151.808594 200.050781 151.855469 200.035156 151.910156 C 200.015625 151.964844 199.96875 152.007812 199.839844 152.023438 L 197.789062 152.390625 L 198.996094 153.972656 L 200.363281 153.730469 C 200.527344 153.695312 200.644531 153.707031 200.753906 153.746094 C 200.859375 153.785156 200.960938 153.851562 201.039062 153.96875 C 201.089844 154.078125 201.117188 154.179688 201.097656 154.234375 Z M 207.070312 187.957031 L 201.902344 185.605469 L 201.578125 188.925781 L 200.867188 189.039062 C 200.367188 188.554688 199.894531 188.085938 199.46875 187.566406 C 199.257812 187.308594 199.0625 187.089844 198.875 186.839844 L 199.15625 184.414062 L 196.898438 183.402344 C 196.628906 182.695312 196.46875 182.03125 196.371094 181.359375 L 199.613281 182.875 L 199.789062 179.804688 L 202.675781 179.308594 L 202.214844 183.949219 L 210.058594 187.433594 Z M 219.292969 231.285156 L 201.730469 210.726562 C 198.023438 210.6875 193.886719 209.21875 190.976562 206.9375 L 182.859375 208.4375 C 184.707031 211.464844 183.691406 214.328125 180.292969 215.492188 L 197.25 235.351562 C 200.957031 235.390625 205.148438 236.878906 208.074219 239.195312 L 217.078125 237.527344 C 215.78125 234.90625 216.644531 232.476562 219.292969 231.285156 Z M 203.453125 227.152344 C 198.433594 228.078125 192.28125 226.441406 189.785156 223.515625 C 187.289062 220.59375 189.371094 217.46875 194.390625 216.546875 C 199.414062 215.621094 205.566406 217.257812 208.0625 220.179688 C 210.558594 223.105469 208.472656 226.230469 203.453125 227.152344 Z M 206.859375 223.648438 C 206.832031 223.730469 206.757812 223.765625 206.660156 223.789062 C 206.53125 223.804688 206.429688 223.832031 206.296875 223.78125 C 206.1875 223.742188 206.0625 223.667969 205.980469 223.550781 L 205.742188 223.28125 L 199.246094 222.4375 L 200.472656 223.875 C 200.535156 223.957031 200.570312 224.03125 200.550781 224.085938 C 200.53125 224.140625 200.484375 224.183594 200.394531 224.179688 C 200.292969 224.207031 200.230469 224.214844 200.148438 224.1875 C 200.070312 224.15625 199.996094 224.101562 199.90625 224.007812 L 198.546875 222.429688 L 197.078125 222.792969 L 198.4375 224.367188 C 198.5 224.453125 198.535156 224.523438 198.515625 224.578125 C 198.496094 224.632812 198.453125 224.675781 198.359375 224.675781 C 198.289062 224.710938 198.207031 224.683594 198.117188 224.679688 C 198.035156 224.652344 197.960938 224.59375 197.875 224.503906 L 196.515625 222.925781 L 194.582031 223.394531 L 195.488281 224.445312 C 195.59375 224.574219 195.628906 224.648438 195.597656 224.730469 C 195.570312 224.8125 195.496094 224.84375 195.398438 224.871094 C 195.296875 224.894531 195.179688 224.882812 195.0625 224.871094 C 194.953125 224.835938 194.828125 224.757812 194.746094 224.640625 L 192.527344 222.058594 C 192.417969 221.929688 192.386719 221.855469 192.414062 221.773438 C 192.441406 221.691406 192.515625 221.65625 192.617188 221.632812 C 192.742188 221.617188 192.84375 221.59375 192.980469 221.640625 C 193.085938 221.679688 193.214844 221.753906 193.292969 221.871094 L 194.199219 222.925781 L 196.132812 222.457031 L 194.773438 220.878906 C 194.710938 220.792969 194.675781 220.722656 194.695312 220.667969 C 194.714844 220.613281 194.761719 220.570312 194.851562 220.570312 C 194.953125 220.546875 195.015625 220.539062 195.097656 220.566406 C 195.179688 220.59375 195.25 220.652344 195.3125 220.734375 L 196.671875 222.3125 L 198.140625 221.953125 L 196.78125 220.375 C 196.71875 220.289062 196.683594 220.21875 196.703125 220.164062 C 196.722656 220.109375 196.769531 220.066406 196.859375 220.066406 C 196.933594 220.03125 197.011719 220.0625 197.105469 220.0625 C 197.183594 220.089844 197.257812 220.148438 197.320312 220.230469 L 198.527344 221.632812 L 201.617188 218.503906 L 201.359375 218.199219 C 201.253906 218.070312 201.21875 217.996094 201.25 217.914062 C 201.277344 217.832031 201.351562 217.800781 201.449219 217.773438 C 201.578125 217.757812 201.679688 217.734375 201.8125 217.78125 C 201.921875 217.820312 202.046875 217.894531 202.128906 218.015625 L 203.292969 219.371094 C 203.398438 219.5 203.433594 219.574219 203.402344 219.652344 C 203.375 219.734375 203.300781 219.769531 203.203125 219.792969 C 203.074219 219.808594 202.972656 219.835938 202.839844 219.789062 C 202.730469 219.75 202.605469 219.675781 202.523438 219.554688 L 202.117188 219.074219 L 199.300781 221.9375 L 205.242188 222.710938 L 204.835938 222.230469 C 204.730469 222.101562 204.695312 222.027344 204.722656 221.945312 C 204.75 221.867188 204.824219 221.832031 204.925781 221.804688 C 205.050781 221.789062 205.152344 221.765625 205.289062 221.8125 C 205.394531 221.851562 205.523438 221.925781 205.601562 222.046875 L 206.738281 223.390625 C 206.855469 223.496094 206.890625 223.566406 206.859375 223.648438 Z M 206.859375 223.648438 "/>
</g>
</g>
</g>
</g>
</g>
</svg>
